<svg width="720" height="480" viewBox="0 0 720 480" fill="none" xmlns="http://www.w3.org/2000/svg">
  <rect width="720" height="480" rx="28" fill="#0f172a" />
  <rect x="32" y="32" width="656" height="416" rx="24" fill="#0b1120" />
  <rect x="48" y="96" width="280" height="320" rx="20" fill="#0d9488" fill-opacity="0.12" stroke="#14b8a6" stroke-width="2" stroke-opacity="0.4" />
  <rect x="220" y="76" width="280" height="328" rx="20" fill="#0d9488" fill-opacity="0.18" stroke="#14b8a6" stroke-width="2" stroke-opacity="0.35" />
  <rect x="396" y="60" width="276" height="336" rx="20" fill="#14b8a6" fill-opacity="0.16" stroke="#0f766e" stroke-width="2" stroke-opacity="0.45" />
  <g opacity="0.85">
    <path d="M140 176H236" stroke="#14b8a6" stroke-width="6" stroke-linecap="round" />
    <path d="M140 212H208" stroke="#22d3ee" stroke-width="4" stroke-linecap="round" stroke-opacity="0.45" />
    <path d="M140 244H224" stroke="#0d9488" stroke-width="4" stroke-linecap="round" stroke-opacity="0.6" />
    <path d="M140 276H248" stroke="#2dd4bf" stroke-width="4" stroke-linecap="round" stroke-opacity="0.55" />
    <rect x="140" y="308" width="104" height="40" rx="12" fill="#14b8a6" fill-opacity="0.16" stroke="#0f766e" stroke-width="2" stroke-opacity="0.35" />
    <path d="M152 328H228" stroke="#14b8a6" stroke-width="4" stroke-linecap="round" stroke-opacity="0.65" />
  </g>
  <g>
    <circle cx="360" cy="160" r="54" fill="#0d9488" fill-opacity="0.18" stroke="#14b8a6" stroke-width="2" />
    <path d="M352 148 L360 136 L368 148" stroke="#14b8a6" stroke-width="4" stroke-linecap="round" stroke-linejoin="round" />
    <path d="M344 168H376" stroke="#14b8a6" stroke-width="4" stroke-linecap="round" />
    <path d="M344 180H376" stroke="#22d3ee" stroke-width="4" stroke-linecap="round" stroke-opacity="0.45" />
  </g>
  <g opacity="0.75">
    <path d="M436 210C452 190 468 190 486 210C500 226 516 226 532 210" stroke="#2dd4bf" stroke-width="6" fill="none" stroke-linecap="round" />
    <path d="M436 258C452 238 468 238 486 258C500 274 516 274 532 258" stroke="#22d3ee" stroke-width="5" fill="none" stroke-linecap="round" stroke-opacity="0.6" />
    <path d="M436 306C452 286 468 286 486 306C500 322 516 322 532 306" stroke="#0d9488" stroke-width="5" fill="none" stroke-linecap="round" stroke-opacity="0.6" />
  </g>
  <rect x="120" y="56" width="120" height="24" rx="12" fill="#14b8a6" fill-opacity="0.18" />
  <rect x="288" y="40" width="144" height="28" rx="14" fill="#0d9488" fill-opacity="0.2" />
  <rect x="472" y="24" width="160" height="32" rx="16" fill="#14b8a6" fill-opacity="0.22" />
  <circle cx="600" cy="360" r="52" fill="#14b8a6" fill-opacity="0.2" />
  <circle cx="600" cy="360" r="38" fill="#0d9488" fill-opacity="0.2" />
  <path d="M584 360H616M600 344V376" stroke="#14b8a6" stroke-width="6" stroke-linecap="round" stroke-opacity="0.75" />
</svg>
