<svg xmlns="http://www.w3.org/2000/svg" width="1920" height="1080" viewBox="0 0 1920 1080" role="img" aria-label="Hero image: colored ribbons converging into a bright checkmarked line">

  <defs>
    <!-- Soft glow used for the check line and ribbon highlights -->
    <filter id="softGlow" x="-50%" y="-50%" width="200%" height="200%">
      <feGaussianBlur stdDeviation="5" result="b"/>
      <feMerge>
        <feMergeNode in="b"/>
        <feMergeNode in="SourceGraphic"/>
      </feMerge>
    </filter>

    <!-- Deeper shadow for subtle depth under ribbons -->
    <filter id="ribbonShadow" x="-50%" y="-50%" width="200%" height="200%">
      <feDropShadow dx="0" dy="8" stdDeviation="10" flood-color="#000000" flood-opacity="0.45"/>
    </filter>

    <!-- Vignette -->
    <radialGradient id="vignette" cx="50%" cy="50%" r="70%">
      <stop offset="60%" stop-color="#000000" stop-opacity="0"/>
      <stop offset="100%" stop-color="#000000" stop-opacity="0.55"/>
    </radialGradient>
  </defs>
    

  <defs>
    <linearGradient id="checkGrad" x1="1099.40" y1="602.80" x2="1854.40" y2="164.80" gradientUnits="userSpaceOnUse">
      <stop offset="0%" stop-color="#ffffff"/>
      <stop offset="50%" stop-color="#7af4e9"/>
      <stop offset="100%" stop-color="#ffffff"/>
    </linearGradient>
  </defs>
    
<g id="background"><rect x="0" y="0" width="1920" height="1080" fill="#0a0f1a"/><g opacity="0.85"><path d="M 1190.40,626.40 L 441.59,-1678.20 A 2423.20,2423.20 0 0 1 495.42,-1695.00 Z" fill="#0b1220"/><path d="M 1190.40,626.40 L 495.42,-1695.00 A 2423.20,2423.20 0 0 1 549.62,-1710.54 Z" fill="#0b1220"/><path d="M 1190.40,626.40 L 549.62,-1710.54 A 2423.20,2423.20 0 0 1 604.18,-1724.82 Z" fill="#0b1220"/><path d="M 1190.40,626.40 L 604.18,-1724.82 A 2423.20,2423.20 0 0 1 659.04,-1737.82 Z" fill="#0b1220"/><path d="M 1190.40,626.40 L 659.04,-1737.82 A 2423.20,2423.20 0 0 1 714.20,-1749.55 Z" fill="#0b1220"/><path d="M 1190.40,626.40 L 714.20,-1749.55 A 2423.20,2423.20 0 0 1 769.62,-1759.98 Z" fill="#0b1220"/><path d="M 1190.40,626.40 L 769.62,-1759.98 A 2423.20,2423.20 0 0 1 825.26,-1769.13 Z" fill="#0b1220"/><path d="M 1190.40,626.40 L 825.26,-1769.13 A 2423.20,2423.20 0 0 1 881.10,-1776.98 Z" fill="#0b1220"/><path d="M 1190.40,626.40 L 881.10,-1776.98 A 2423.20,2423.20 0 0 1 937.11,-1783.52 Z" fill="#0b1220"/><path d="M 1190.40,626.40 L 937.11,-1783.52 A 2423.20,2423.20 0 0 1 993.25,-1788.76 Z" fill="#0b1220"/><path d="M 1190.40,626.40 L 993.25,-1788.76 A 2423.20,2423.20 0 0 1 1049.50,-1792.70 Z" fill="#0b1220"/><path d="M 1190.40,626.40 L 1049.50,-1792.70 A 2423.20,2423.20 0 0 1 1105.83,-1795.32 Z" fill="#0b1220"/><path d="M 1190.40,626.40 L 1105.83,-1795.32 A 2423.20,2423.20 0 0 1 1162.21,-1796.63 Z" fill="#0b1221"/><path d="M 1190.40,626.40 L 1162.21,-1796.63 A 2423.20,2423.20 0 0 1 1218.59,-1796.63 Z" fill="#0b1221"/><path d="M 1190.40,626.40 L 1218.59,-1796.63 A 2423.20,2423.20 0 0 1 1274.97,-1795.32 Z" fill="#0b1221"/><path d="M 1190.40,626.40 L 1274.97,-1795.32 A 2423.20,2423.20 0 0 1 1331.30,-1792.70 Z" fill="#0b1221"/><path d="M 1190.40,626.40 L 1331.30,-1792.70 A 2423.20,2423.20 0 0 1 1387.55,-1788.76 Z" fill="#0b1221"/><path d="M 1190.40,626.40 L 1387.55,-1788.76 A 2423.20,2423.20 0 0 1 1443.69,-1783.52 Z" fill="#0b1221"/><path d="M 1190.40,626.40 L 1443.69,-1783.52 A 2423.20,2423.20 0 0 1 1499.70,-1776.98 Z" fill="#0b1221"/><path d="M 1190.40,626.40 L 1499.70,-1776.98 A 2423.20,2423.20 0 0 1 1555.54,-1769.13 Z" fill="#0b1221"/><path d="M 1190.40,626.40 L 1555.54,-1769.13 A 2423.20,2423.20 0 0 1 1611.18,-1759.98 Z" fill="#0b1221"/><path d="M 1190.40,626.40 L 1611.18,-1759.98 A 2423.20,2423.20 0 0 1 1666.60,-1749.55 Z" fill="#0b1221"/><path d="M 1190.40,626.40 L 1666.60,-1749.55 A 2423.20,2423.20 0 0 1 1721.76,-1737.82 Z" fill="#0b1221"/><path d="M 1190.40,626.40 L 1721.76,-1737.82 A 2423.20,2423.20 0 0 1 1776.62,-1724.82 Z" fill="#0b1221"/><path d="M 1190.40,626.40 L 1776.62,-1724.82 A 2423.20,2423.20 0 0 1 1831.18,-1710.54 Z" fill="#0c1321"/><path d="M 1190.40,626.40 L 1831.18,-1710.54 A 2423.20,2423.20 0 0 1 1885.38,-1695.00 Z" fill="#0c1321"/><path d="M 1190.40,626.40 L 1885.38,-1695.00 A 2423.20,2423.20 0 0 1 1939.21,-1678.20 Z" fill="#0c1321"/><path d="M 1190.40,626.40 L 1939.21,-1678.20 A 2423.20,2423.20 0 0 1 1992.63,-1660.15 Z" fill="#0c1321"/><path d="M 1190.40,626.40 L 1992.63,-1660.15 A 2423.20,2423.20 0 0 1 2045.62,-1640.86 Z" fill="#0c1321"/><path d="M 1190.40,626.40 L 2045.62,-1640.86 A 2423.20,2423.20 0 0 1 2098.15,-1620.35 Z" fill="#0c1321"/><path d="M 1190.40,626.40 L 2098.15,-1620.35 A 2423.20,2423.20 0 0 1 2150.18,-1598.62 Z" fill="#0c1321"/><path d="M 1190.40,626.40 L 2150.18,-1598.62 A 2423.20,2423.20 0 0 1 2201.69,-1575.68 Z" fill="#0c1321"/><path d="M 1190.40,626.40 L 2201.69,-1575.68 A 2423.20,2423.20 0 0 1 2252.66,-1551.56 Z" fill="#0c1321"/><path d="M 1190.40,626.40 L 2252.66,-1551.56 A 2423.20,2423.20 0 0 1 2303.05,-1526.25 Z" fill="#0c1321"/><path d="M 1190.40,626.40 L 2303.05,-1526.25 A 2423.20,2423.20 0 0 1 2352.84,-1499.78 Z" fill="#0c1321"/><path d="M 1190.40,626.40 L 2352.84,-1499.78 A 2423.20,2423.20 0 0 1 2402.00,-1472.15 Z" fill="#0c1321"/><path d="M 1190.40,626.40 L 2402.00,-1472.15 A 2423.20,2423.20 0 0 1 2450.50,-1443.39 Z" fill="#0c1322"/><path d="M 1190.40,626.40 L 2450.50,-1443.39 A 2423.20,2423.20 0 0 1 2498.32,-1413.51 Z" fill="#0c1322"/><path d="M 1190.40,626.40 L 2498.32,-1413.51 A 2423.20,2423.20 0 0 1 2545.44,-1382.52 Z" fill="#0c1322"/><path d="M 1190.40,626.40 L 2545.44,-1382.52 A 2423.20,2423.20 0 0 1 2591.81,-1350.45 Z" fill="#0c1322"/><path d="M 1190.40,626.40 L 2591.81,-1350.45 A 2423.20,2423.20 0 0 1 2637.43,-1317.30 Z" fill="#0c1322"/><path d="M 1190.40,626.40 L 2637.43,-1317.30 A 2423.20,2423.20 0 0 1 2682.27,-1283.11 Z" fill="#0c1322"/><path d="M 1190.40,626.40 L 2682.27,-1283.11 A 2423.20,2423.20 0 0 1 2726.30,-1247.87 Z" fill="#0c1322"/><path d="M 1190.40,626.40 L 2726.30,-1247.87 A 2423.20,2423.20 0 0 1 2769.49,-1211.63 Z" fill="#0c1322"/><path d="M 1190.40,626.40 L 2769.49,-1211.63 A 2423.20,2423.20 0 0 1 2811.84,-1174.39 Z" fill="#0c1322"/><path d="M 1190.40,626.40 L 2811.84,-1174.39 A 2423.20,2423.20 0 0 1 2853.30,-1136.17 Z" fill="#0c1322"/><path d="M 1190.40,626.40 L 2853.30,-1136.17 A 2423.20,2423.20 0 0 1 2893.86,-1097.00 Z" fill="#0c1322"/><path d="M 1190.40,626.40 L 2893.86,-1097.00 A 2423.20,2423.20 0 0 1 2933.50,-1056.89 Z" fill="#0c1322"/><path d="M 1190.40,626.40 L 2933.50,-1056.89 A 2423.20,2423.20 0 0 1 2972.20,-1015.88 Z" fill="#0c1322"/><path d="M 1190.40,626.40 L 2972.20,-1015.88 A 2423.20,2423.20 0 0 1 3009.93,-973.97 Z" fill="#0c1322"/><path d="M 1190.40,626.40 L 3009.93,-973.97 A 2423.20,2423.20 0 0 1 3046.68,-931.20 Z" fill="#0c1322"/><path d="M 1190.40,626.40 L 3046.68,-931.20 A 2423.20,2423.20 0 0 1 3082.42,-887.59 Z" fill="#0c1322"/><path d="M 1190.40,626.40 L 3082.42,-887.59 A 2423.20,2423.20 0 0 1 3117.14,-843.15 Z" fill="#0c1322"/><path d="M 1190.40,626.40 L 3117.14,-843.15 A 2423.20,2423.20 0 0 1 3150.81,-797.92 Z" fill="#0c1322"/><path d="M 1190.40,626.40 L 3150.81,-797.92 A 2423.20,2423.20 0 0 1 3183.42,-751.92 Z" fill="#0c1322"/><path d="M 1190.40,626.40 L 3183.42,-751.92 A 2423.20,2423.20 0 0 1 3214.95,-705.17 Z" fill="#0c1322"/><path d="M 1190.40,626.40 L 3214.95,-705.17 A 2423.20,2423.20 0 0 1 3245.39,-657.70 Z" fill="#0c1322"/><path d="M 1190.40,626.40 L 3245.39,-657.70 A 2423.20,2423.20 0 0 1 3274.71,-609.53 Z" fill="#0c1322"/><path d="M 1190.40,626.40 L 3274.71,-609.53 A 2423.20,2423.20 0 0 1 3302.91,-560.70 Z" fill="#0c1322"/><path d="M 1190.40,626.40 L 3302.91,-560.70 A 2423.20,2423.20 0 0 1 3329.96,-511.22 Z" fill="#0c1323"/><path d="M 1190.40,626.40 L 3329.96,-511.22 A 2423.20,2423.20 0 0 1 3355.85,-461.13 Z" fill="#0c1323"/><path d="M 1190.40,626.40 L 3355.85,-461.13 A 2423.20,2423.20 0 0 1 3380.57,-410.45 Z" fill="#0c1323"/><path d="M 1190.40,626.40 L 3380.57,-410.45 A 2423.20,2423.20 0 0 1 3404.10,-359.20 Z" fill="#0c1323"/><path d="M 1190.40,626.40 L 3404.10,-359.20 A 2423.20,2423.20 0 0 1 3426.44,-307.43 Z" fill="#0c1323"/><path d="M 1190.40,626.40 L 3426.44,-307.43 A 2423.20,2423.20 0 0 1 3447.56,-255.14 Z" fill="#0c1323"/><path d="M 1190.40,626.40 L 3447.56,-255.14 A 2423.20,2423.20 0 0 1 3467.46,-202.38 Z" fill="#0c1323"/><path d="M 1190.40,626.40 L 3467.46,-202.38 A 2423.20,2423.20 0 0 1 3486.13,-149.17 Z" fill="#0c1323"/><path d="M 1190.40,626.40 L 3486.13,-149.17 A 2423.20,2423.20 0 0 1 3503.55,-95.54 Z" fill="#0c1323"/><path d="M 1190.40,626.40 L 3503.55,-95.54 A 2423.20,2423.20 0 0 1 3519.73,-41.52 Z" fill="#0c1323"/><path d="M 1190.40,626.40 L 3519.73,-41.52 A 2423.20,2423.20 0 0 1 3534.64,12.86 Z" fill="#0c1323"/><path d="M 1190.40,626.40 L 3534.64,12.86 A 2423.20,2423.20 0 0 1 3548.28,67.57 Z" fill="#0c1323"/><path d="M 1190.40,626.40 L 3548.28,67.57 A 2423.20,2423.20 0 0 1 3560.65,122.59 Z" fill="#0d1423"/><path d="M 1190.40,626.40 L 3560.65,122.59 A 2423.20,2423.20 0 0 1 3571.73,177.88 Z" fill="#0d1423"/><path d="M 1190.40,626.40 L 3571.73,177.88 A 2423.20,2423.20 0 0 1 3581.52,233.41 Z" fill="#0d1423"/><path d="M 1190.40,626.40 L 3581.52,233.41 A 2423.20,2423.20 0 0 1 3590.02,289.16 Z" fill="#0d1423"/><path d="M 1190.40,626.40 L 3590.02,289.16 A 2423.20,2423.20 0 0 1 3597.21,345.08 Z" fill="#0d1423"/><path d="M 1190.40,626.40 L 3597.21,345.08 A 2423.20,2423.20 0 0 1 3603.11,401.16 Z" fill="#0d1423"/><path d="M 1190.40,626.40 L 3603.11,401.16 A 2423.20,2423.20 0 0 1 3607.70,457.37 Z" fill="#0d1423"/><path d="M 1190.40,626.40 L 3607.70,457.37 A 2423.20,2423.20 0 0 1 3610.97,513.66 Z" fill="#0d1423"/><path d="M 1190.40,626.40 L 3610.97,513.66 A 2423.20,2423.20 0 0 1 3612.94,570.01 Z" fill="#0d1423"/><path d="M 1190.40,626.40 L 3612.94,570.01 A 2423.20,2423.20 0 0 1 3613.60,626.40 Z" fill="#0d1423"/><path d="M 1190.40,626.40 L 3613.60,626.40 A 2423.20,2423.20 0 0 1 3612.94,682.79 Z" fill="#0d1423"/><path d="M 1190.40,626.40 L 3612.94,682.79 A 2423.20,2423.20 0 0 1 3610.97,739.14 Z" fill="#0d1423"/><path d="M 1190.40,626.40 L 3610.97,739.14 A 2423.20,2423.20 0 0 1 3607.70,795.43 Z" fill="#0d1424"/><path d="M 1190.40,626.40 L 3607.70,795.43 A 2423.20,2423.20 0 0 1 3603.11,851.64 Z" fill="#0d1424"/><path d="M 1190.40,626.40 L 3603.11,851.64 A 2423.20,2423.20 0 0 1 3597.21,907.72 Z" fill="#0d1424"/><path d="M 1190.40,626.40 L 3597.21,907.72 A 2423.20,2423.20 0 0 1 3590.02,963.64 Z" fill="#0d1424"/><path d="M 1190.40,626.40 L 3590.02,963.64 A 2423.20,2423.20 0 0 1 3581.52,1019.39 Z" fill="#0d1424"/><path d="M 1190.40,626.40 L 3581.52,1019.39 A 2423.20,2423.20 0 0 1 3571.73,1074.92 Z" fill="#0d1424"/><path d="M 1190.40,626.40 L 3571.73,1074.92 A 2423.20,2423.20 0 0 1 3560.65,1130.21 Z" fill="#0d1424"/><path d="M 1190.40,626.40 L 3560.65,1130.21 A 2423.20,2423.20 0 0 1 3548.28,1185.23 Z" fill="#0d1424"/><path d="M 1190.40,626.40 L 3548.28,1185.23 A 2423.20,2423.20 0 0 1 3534.64,1239.94 Z" fill="#0d1424"/><path d="M 1190.40,626.40 L 3534.64,1239.94 A 2423.20,2423.20 0 0 1 3519.73,1294.32 Z" fill="#0d1424"/><path d="M 1190.40,626.40 L 3519.73,1294.32 A 2423.20,2423.20 0 0 1 3503.55,1348.34 Z" fill="#0d1424"/><path d="M 1190.40,626.40 L 3503.55,1348.34 A 2423.20,2423.20 0 0 1 3486.13,1401.97 Z" fill="#0d1424"/><path d="M 1190.40,626.40 L 3486.13,1401.97 A 2423.20,2423.20 0 0 1 3467.46,1455.18 Z" fill="#0d1424"/><path d="M 1190.40,626.40 L 3467.46,1455.18 A 2423.20,2423.20 0 0 1 3447.56,1507.94 Z" fill="#0d1424"/><path d="M 1190.40,626.40 L 3447.56,1507.94 A 2423.20,2423.20 0 0 1 3426.44,1560.23 Z" fill="#0d1424"/><path d="M 1190.40,626.40 L 3426.44,1560.23 A 2423.20,2423.20 0 0 1 3404.10,1612.00 Z" fill="#0d1424"/><path d="M 1190.40,626.40 L 3404.10,1612.00 A 2423.20,2423.20 0 0 1 3380.57,1663.25 Z" fill="#0d1424"/><path d="M 1190.40,626.40 L 3380.57,1663.25 A 2423.20,2423.20 0 0 1 3355.85,1713.93 Z" fill="#0d1424"/><path d="M 1190.40,626.40 L 3355.85,1713.93 A 2423.20,2423.20 0 0 1 3329.96,1764.02 Z" fill="#0d1425"/><path d="M 1190.40,626.40 L 3329.96,1764.02 A 2423.20,2423.20 0 0 1 3302.91,1813.50 Z" fill="#0d1425"/><path d="M 1190.40,626.40 L 3302.91,1813.50 A 2423.20,2423.20 0 0 1 3274.71,1862.33 Z" fill="#0e1425"/><path d="M 1190.40,626.40 L 3274.71,1862.33 A 2423.20,2423.20 0 0 1 3245.39,1910.50 Z" fill="#0e1425"/><path d="M 1190.40,626.40 L 3245.39,1910.50 A 2423.20,2423.20 0 0 1 3214.95,1957.97 Z" fill="#0e1325"/><path d="M 1190.40,626.40 L 3214.95,1957.97 A 2423.20,2423.20 0 0 1 3183.42,2004.72 Z" fill="#0e1325"/><path d="M 1190.40,626.40 L 3183.42,2004.72 A 2423.20,2423.20 0 0 1 3150.81,2050.72 Z" fill="#0e1325"/><path d="M 1190.40,626.40 L 3150.81,2050.72 A 2423.20,2423.20 0 0 1 3117.14,2095.95 Z" fill="#0e1325"/><path d="M 1190.40,626.40 L 3117.14,2095.95 A 2423.20,2423.20 0 0 1 3082.42,2140.39 Z" fill="#0e1325"/><path d="M 1190.40,626.40 L 3082.42,2140.39 A 2423.20,2423.20 0 0 1 3046.68,2184.00 Z" fill="#0e1325"/><path d="M 1190.40,626.40 L 3046.68,2184.00 A 2423.20,2423.20 0 0 1 3009.93,2226.77 Z" fill="#0e1325"/><path d="M 1190.40,626.40 L 3009.93,2226.77 A 2423.20,2423.20 0 0 1 2972.20,2268.68 Z" fill="#0e1325"/><path d="M 1190.40,626.40 L 2972.20,2268.68 A 2423.20,2423.20 0 0 1 2933.50,2309.69 Z" fill="#0e1325"/><path d="M 1190.40,626.40 L 2933.50,2309.69 A 2423.20,2423.20 0 0 1 2893.86,2349.80 Z" fill="#0e1325"/><path d="M 1190.40,626.40 L 2893.86,2349.80 A 2423.20,2423.20 0 0 1 2853.30,2388.97 Z" fill="#0e1326"/><path d="M 1190.40,626.40 L 2853.30,2388.97 A 2423.20,2423.20 0 0 1 2811.84,2427.19 Z" fill="#0e1326"/><path d="M 1190.40,626.40 L 2811.84,2427.19 A 2423.20,2423.20 0 0 1 2769.49,2464.43 Z" fill="#0e1326"/><path d="M 1190.40,626.40 L 2769.49,2464.43 A 2423.20,2423.20 0 0 1 2726.30,2500.67 Z" fill="#0e1326"/><path d="M 1190.40,626.40 L 2726.30,2500.67 A 2423.20,2423.20 0 0 1 2682.27,2535.91 Z" fill="#0f1326"/><path d="M 1190.40,626.40 L 2682.27,2535.91 A 2423.20,2423.20 0 0 1 2637.43,2570.10 Z" fill="#0f1326"/><path d="M 1190.40,626.40 L 2637.43,2570.10 A 2423.20,2423.20 0 0 1 2591.81,2603.25 Z" fill="#0f1326"/><path d="M 1190.40,626.40 L 2591.81,2603.25 A 2423.20,2423.20 0 0 1 2545.44,2635.32 Z" fill="#0f1326"/><path d="M 1190.40,626.40 L 2545.44,2635.32 A 2423.20,2423.20 0 0 1 2498.32,2666.31 Z" fill="#0f1326"/><path d="M 1190.40,626.40 L 2498.32,2666.31 A 2423.20,2423.20 0 0 1 2450.50,2696.19 Z" fill="#0f1326"/><path d="M 1190.40,626.40 L 2450.50,2696.19 A 2423.20,2423.20 0 0 1 2402.00,2724.95 Z" fill="#0f1226"/><path d="M 1190.40,626.40 L 2402.00,2724.95 A 2423.20,2423.20 0 0 1 2352.84,2752.58 Z" fill="#0f1226"/><path d="M 1190.40,626.40 L 2352.84,2752.58 A 2423.20,2423.20 0 0 1 2303.05,2779.05 Z" fill="#0f1226"/><path d="M 1190.40,626.40 L 2303.05,2779.05 A 2423.20,2423.20 0 0 1 2252.66,2804.36 Z" fill="#0f1227"/><path d="M 1190.40,626.40 L 2252.66,2804.36 A 2423.20,2423.20 0 0 1 2201.69,2828.48 Z" fill="#0f1227"/><path d="M 1190.40,626.40 L 2201.69,2828.48 A 2423.20,2423.20 0 0 1 2150.18,2851.42 Z" fill="#0f1227"/><path d="M 1190.40,626.40 L 2150.18,2851.42 A 2423.20,2423.20 0 0 1 2098.15,2873.15 Z" fill="#0f1227"/><path d="M 1190.40,626.40 L 2098.15,2873.15 A 2423.20,2423.20 0 0 1 2045.62,2893.66 Z" fill="#0f1227"/><path d="M 1190.40,626.40 L 2045.62,2893.66 A 2423.20,2423.20 0 0 1 1992.63,2912.95 Z" fill="#0f1227"/><path d="M 1190.40,626.40 L 1992.63,2912.95 A 2423.20,2423.20 0 0 1 1939.21,2931.00 Z" fill="#0f1227"/><path d="M 1190.40,626.40 L 1939.21,2931.00 A 2423.20,2423.20 0 0 1 1885.38,2947.80 Z" fill="#101227"/><path d="M 1190.40,626.40 L 1885.38,2947.80 A 2423.20,2423.20 0 0 1 1831.18,2963.34 Z" fill="#101227"/><path d="M 1190.40,626.40 L 1831.18,2963.34 A 2423.20,2423.20 0 0 1 1776.62,2977.62 Z" fill="#101227"/><path d="M 1190.40,626.40 L 1776.62,2977.62 A 2423.20,2423.20 0 0 1 1721.76,2990.62 Z" fill="#101227"/><path d="M 1190.40,626.40 L 1721.76,2990.62 A 2423.20,2423.20 0 0 1 1666.60,3002.35 Z" fill="#101227"/><path d="M 1190.40,626.40 L 1666.60,3002.35 A 2423.20,2423.20 0 0 1 1611.18,3012.78 Z" fill="#101227"/><path d="M 1190.40,626.40 L 1611.18,3012.78 A 2423.20,2423.20 0 0 1 1555.54,3021.93 Z" fill="#101227"/><path d="M 1190.40,626.40 L 1555.54,3021.93 A 2423.20,2423.20 0 0 1 1499.70,3029.78 Z" fill="#101228"/><path d="M 1190.40,626.40 L 1499.70,3029.78 A 2423.20,2423.20 0 0 1 1443.69,3036.32 Z" fill="#101228"/><path d="M 1190.40,626.40 L 1443.69,3036.32 A 2423.20,2423.20 0 0 1 1387.55,3041.56 Z" fill="#101228"/><path d="M 1190.40,626.40 L 1387.55,3041.56 A 2423.20,2423.20 0 0 1 1331.30,3045.50 Z" fill="#101128"/><path d="M 1190.40,626.40 L 1331.30,3045.50 A 2423.20,2423.20 0 0 1 1274.97,3048.12 Z" fill="#101128"/><path d="M 1190.40,626.40 L 1274.97,3048.12 A 2423.20,2423.20 0 0 1 1218.59,3049.43 Z" fill="#101128"/><path d="M 1190.40,626.40 L 1218.59,3049.43 A 2423.20,2423.20 0 0 1 1162.21,3049.43 Z" fill="#101128"/><path d="M 1190.40,626.40 L 1162.21,3049.43 A 2423.20,2423.20 0 0 1 1105.83,3048.12 Z" fill="#101128"/><path d="M 1190.40,626.40 L 1105.83,3048.12 A 2423.20,2423.20 0 0 1 1049.50,3045.50 Z" fill="#101128"/><path d="M 1190.40,626.40 L 1049.50,3045.50 A 2423.20,2423.20 0 0 1 993.25,3041.56 Z" fill="#111128"/><path d="M 1190.40,626.40 L 993.25,3041.56 A 2423.20,2423.20 0 0 1 937.11,3036.32 Z" fill="#111128"/><path d="M 1190.40,626.40 L 937.11,3036.32 A 2423.20,2423.20 0 0 1 881.10,3029.78 Z" fill="#111128"/><path d="M 1190.40,626.40 L 881.10,3029.78 A 2423.20,2423.20 0 0 1 825.26,3021.93 Z" fill="#111128"/><path d="M 1190.40,626.40 L 825.26,3021.93 A 2423.20,2423.20 0 0 1 769.62,3012.78 Z" fill="#111129"/><path d="M 1190.40,626.40 L 769.62,3012.78 A 2423.20,2423.20 0 0 1 714.20,3002.35 Z" fill="#111129"/><path d="M 1190.40,626.40 L 714.20,3002.35 A 2423.20,2423.20 0 0 1 659.04,2990.62 Z" fill="#111129"/><path d="M 1190.40,626.40 L 659.04,2990.62 A 2423.20,2423.20 0 0 1 604.18,2977.62 Z" fill="#111129"/><path d="M 1190.40,626.40 L 604.18,2977.62 A 2423.20,2423.20 0 0 1 549.62,2963.34 Z" fill="#111129"/><path d="M 1190.40,626.40 L 549.62,2963.34 A 2423.20,2423.20 0 0 1 495.42,2947.80 Z" fill="#111129"/><path d="M 1190.40,626.40 L 495.42,2947.80 A 2423.20,2423.20 0 0 1 441.59,2931.00 Z" fill="#111129"/><path d="M 1190.40,626.40 L 441.59,2931.00 A 2423.20,2423.20 0 0 1 388.17,2912.95 Z" fill="#111129"/><path d="M 1190.40,626.40 L 388.17,2912.95 A 2423.20,2423.20 0 0 1 335.18,2893.66 Z" fill="#111129"/><path d="M 1190.40,626.40 L 335.18,2893.66 A 2423.20,2423.20 0 0 1 282.65,2873.15 Z" fill="#111129"/><path d="M 1190.40,626.40 L 282.65,2873.15 A 2423.20,2423.20 0 0 1 230.62,2851.42 Z" fill="#111029"/><path d="M 1190.40,626.40 L 230.62,2851.42 A 2423.20,2423.20 0 0 1 179.11,2828.48 Z" fill="#111029"/><path d="M 1190.40,626.40 L 179.11,2828.48 A 2423.20,2423.20 0 0 1 128.14,2804.36 Z" fill="#121029"/><path d="M 1190.40,626.40 L 128.14,2804.36 A 2423.20,2423.20 0 0 1 77.75,2779.05 Z" fill="#121029"/><path d="M 1190.40,626.40 L 77.75,2779.05 A 2423.20,2423.20 0 0 1 27.96,2752.58 Z" fill="#12102a"/><path d="M 1190.40,626.40 L 27.96,2752.58 A 2423.20,2423.20 0 0 1 -21.20,2724.95 Z" fill="#12102a"/><path d="M 1190.40,626.40 L -21.20,2724.95 A 2423.20,2423.20 0 0 1 -69.70,2696.19 Z" fill="#12102a"/><path d="M 1190.40,626.40 L -69.70,2696.19 A 2423.20,2423.20 0 0 1 -117.52,2666.31 Z" fill="#12102a"/><path d="M 1190.40,626.40 L -117.52,2666.31 A 2423.20,2423.20 0 0 1 -164.64,2635.32 Z" fill="#12102a"/><path d="M 1190.40,626.40 L -164.64,2635.32 A 2423.20,2423.20 0 0 1 -211.01,2603.25 Z" fill="#12102a"/><path d="M 1190.40,626.40 L -211.01,2603.25 A 2423.20,2423.20 0 0 1 -256.63,2570.10 Z" fill="#12102a"/><path d="M 1190.40,626.40 L -256.63,2570.10 A 2423.20,2423.20 0 0 1 -301.47,2535.91 Z" fill="#12102a"/><path d="M 1190.40,626.40 L -301.47,2535.91 A 2423.20,2423.20 0 0 1 -345.50,2500.67 Z" fill="#12102a"/><path d="M 1190.40,626.40 L -345.50,2500.67 A 2423.20,2423.20 0 0 1 -388.69,2464.43 Z" fill="#12112a"/><path d="M 1190.40,626.40 L -388.69,2464.43 A 2423.20,2423.20 0 0 1 -431.04,2427.19 Z" fill="#11112a"/><path d="M 1190.40,626.40 L -431.04,2427.19 A 2423.20,2423.20 0 0 1 -472.50,2388.97 Z" fill="#111129"/><path d="M 1190.40,626.40 L -472.50,2388.97 A 2423.20,2423.20 0 0 1 -513.06,2349.80 Z" fill="#111129"/><path d="M 1190.40,626.40 L -513.06,2349.80 A 2423.20,2423.20 0 0 1 -552.70,2309.69 Z" fill="#111229"/><path d="M 1190.40,626.40 L -552.70,2309.69 A 2423.20,2423.20 0 0 1 -591.40,2268.68 Z" fill="#111229"/><path d="M 1190.40,626.40 L -591.40,2268.68 A 2423.20,2423.20 0 0 1 -629.13,2226.77 Z" fill="#111229"/><path d="M 1190.40,626.40 L -629.13,2226.77 A 2423.20,2423.20 0 0 1 -665.88,2184.00 Z" fill="#111229"/><path d="M 1190.40,626.40 L -665.88,2184.00 A 2423.20,2423.20 0 0 1 -701.62,2140.39 Z" fill="#111229"/><path d="M 1190.40,626.40 L -701.62,2140.39 A 2423.20,2423.20 0 0 1 -736.34,2095.95 Z" fill="#101329"/><path d="M 1190.40,626.40 L -736.34,2095.95 A 2423.20,2423.20 0 0 1 -770.01,2050.72 Z" fill="#101329"/><path d="M 1190.40,626.40 L -770.01,2050.72 A 2423.20,2423.20 0 0 1 -802.62,2004.72 Z" fill="#101328"/><path d="M 1190.40,626.40 L -802.62,2004.72 A 2423.20,2423.20 0 0 1 -834.15,1957.97 Z" fill="#101328"/><path d="M 1190.40,626.40 L -834.15,1957.97 A 2423.20,2423.20 0 0 1 -864.59,1910.50 Z" fill="#101428"/><path d="M 1190.40,626.40 L -864.59,1910.50 A 2423.20,2423.20 0 0 1 -893.91,1862.33 Z" fill="#101428"/><path d="M 1190.40,626.40 L -893.91,1862.33 A 2423.20,2423.20 0 0 1 -922.11,1813.50 Z" fill="#101428"/><path d="M 1190.40,626.40 L -922.11,1813.50 A 2423.20,2423.20 0 0 1 -949.16,1764.02 Z" fill="#101428"/><path d="M 1190.40,626.40 L -949.16,1764.02 A 2423.20,2423.20 0 0 1 -975.05,1713.93 Z" fill="#0f1428"/><path d="M 1190.40,626.40 L -975.05,1713.93 A 2423.20,2423.20 0 0 1 -999.77,1663.25 Z" fill="#0f1528"/><path d="M 1190.40,626.40 L -999.77,1663.25 A 2423.20,2423.20 0 0 1 -1023.30,1612.00 Z" fill="#0f1528"/><path d="M 1190.40,626.40 L -1023.30,1612.00 A 2423.20,2423.20 0 0 1 -1045.64,1560.23 Z" fill="#0f1527"/><path d="M 1190.40,626.40 L -1045.64,1560.23 A 2423.20,2423.20 0 0 1 -1066.76,1507.94 Z" fill="#0f1527"/><path d="M 1190.40,626.40 L -1066.76,1507.94 A 2423.20,2423.20 0 0 1 -1086.66,1455.18 Z" fill="#0f1627"/><path d="M 1190.40,626.40 L -1086.66,1455.18 A 2423.20,2423.20 0 0 1 -1105.33,1401.97 Z" fill="#0f1627"/><path d="M 1190.40,626.40 L -1105.33,1401.97 A 2423.20,2423.20 0 0 1 -1122.75,1348.34 Z" fill="#0e1627"/><path d="M 1190.40,626.40 L -1122.75,1348.34 A 2423.20,2423.20 0 0 1 -1138.93,1294.32 Z" fill="#0e1627"/><path d="M 1190.40,626.40 L -1138.93,1294.32 A 2423.20,2423.20 0 0 1 -1153.84,1239.94 Z" fill="#0e1727"/><path d="M 1190.40,626.40 L -1153.84,1239.94 A 2423.20,2423.20 0 0 1 -1167.48,1185.23 Z" fill="#0e1727"/><path d="M 1190.40,626.40 L -1167.48,1185.23 A 2423.20,2423.20 0 0 1 -1179.85,1130.21 Z" fill="#0e1727"/><path d="M 1190.40,626.40 L -1179.85,1130.21 A 2423.20,2423.20 0 0 1 -1190.93,1074.92 Z" fill="#0e1726"/><path d="M 1190.40,626.40 L -1190.93,1074.92 A 2423.20,2423.20 0 0 1 -1200.72,1019.39 Z" fill="#0e1726"/><path d="M 1190.40,626.40 L -1200.72,1019.39 A 2423.20,2423.20 0 0 1 -1209.22,963.64 Z" fill="#0e1826"/><path d="M 1190.40,626.40 L -1209.22,963.64 A 2423.20,2423.20 0 0 1 -1216.41,907.72 Z" fill="#0d1826"/><path d="M 1190.40,626.40 L -1216.41,907.72 A 2423.20,2423.20 0 0 1 -1222.31,851.64 Z" fill="#0d1826"/><path d="M 1190.40,626.40 L -1222.31,851.64 A 2423.20,2423.20 0 0 1 -1226.90,795.43 Z" fill="#0d1826"/><path d="M 1190.40,626.40 L -1226.90,795.43 A 2423.20,2423.20 0 0 1 -1230.17,739.14 Z" fill="#0d1926"/><path d="M 1190.40,626.40 L -1230.17,739.14 A 2423.20,2423.20 0 0 1 -1232.14,682.79 Z" fill="#0d1926"/><path d="M 1190.40,626.40 L -1232.14,682.79 A 2423.20,2423.20 0 0 1 -1232.80,626.40 Z" fill="#0d1926"/><path d="M 1190.40,626.40 L -1232.80,626.40 A 2423.20,2423.20 0 0 1 -1232.14,570.01 Z" fill="#0d1925"/><path d="M 1190.40,626.40 L -1232.14,570.01 A 2423.20,2423.20 0 0 1 -1230.17,513.66 Z" fill="#0d1925"/><path d="M 1190.40,626.40 L -1230.17,513.66 A 2423.20,2423.20 0 0 1 -1226.90,457.37 Z" fill="#0c1a25"/><path d="M 1190.40,626.40 L -1226.90,457.37 A 2423.20,2423.20 0 0 1 -1222.31,401.16 Z" fill="#0c1a25"/><path d="M 1190.40,626.40 L -1222.31,401.16 A 2423.20,2423.20 0 0 1 -1216.41,345.08 Z" fill="#0c1a25"/><path d="M 1190.40,626.40 L -1216.41,345.08 A 2423.20,2423.20 0 0 1 -1209.22,289.16 Z" fill="#0c1a25"/><path d="M 1190.40,626.40 L -1209.22,289.16 A 2423.20,2423.20 0 0 1 -1200.72,233.41 Z" fill="#0c1b25"/><path d="M 1190.40,626.40 L -1200.72,233.41 A 2423.20,2423.20 0 0 1 -1190.93,177.88 Z" fill="#0c1b25"/><path d="M 1190.40,626.40 L -1190.93,177.88 A 2423.20,2423.20 0 0 1 -1179.85,122.59 Z" fill="#0c1b25"/><path d="M 1190.40,626.40 L -1179.85,122.59 A 2423.20,2423.20 0 0 1 -1167.48,67.57 Z" fill="#0b1b24"/><path d="M 1190.40,626.40 L -1167.48,67.57 A 2423.20,2423.20 0 0 1 -1153.84,12.86 Z" fill="#0b1b24"/><path d="M 1190.40,626.40 L -1153.84,12.86 A 2423.20,2423.20 0 0 1 -1138.93,-41.52 Z" fill="#0b1c24"/><path d="M 1190.40,626.40 L -1138.93,-41.52 A 2423.20,2423.20 0 0 1 -1122.75,-95.54 Z" fill="#0b1c24"/><path d="M 1190.40,626.40 L -1122.75,-95.54 A 2423.20,2423.20 0 0 1 -1105.33,-149.17 Z" fill="#0b1c24"/><path d="M 1190.40,626.40 L -1105.33,-149.17 A 2423.20,2423.20 0 0 1 -1086.66,-202.38 Z" fill="#0b1c24"/><path d="M 1190.40,626.40 L -1086.66,-202.38 A 2423.20,2423.20 0 0 1 -1066.76,-255.14 Z" fill="#0b1b24"/><path d="M 1190.40,626.40 L -1066.76,-255.14 A 2423.20,2423.20 0 0 1 -1045.64,-307.43 Z" fill="#0b1b24"/><path d="M 1190.40,626.40 L -1045.64,-307.43 A 2423.20,2423.20 0 0 1 -1023.30,-359.20 Z" fill="#0b1b24"/><path d="M 1190.40,626.40 L -1023.30,-359.20 A 2423.20,2423.20 0 0 1 -999.77,-410.45 Z" fill="#0b1b23"/><path d="M 1190.40,626.40 L -999.77,-410.45 A 2423.20,2423.20 0 0 1 -975.05,-461.13 Z" fill="#0b1a23"/><path d="M 1190.40,626.40 L -975.05,-461.13 A 2423.20,2423.20 0 0 1 -949.16,-511.22 Z" fill="#0b1a23"/><path d="M 1190.40,626.40 L -949.16,-511.22 A 2423.20,2423.20 0 0 1 -922.11,-560.70 Z" fill="#0b1a23"/><path d="M 1190.40,626.40 L -922.11,-560.70 A 2423.20,2423.20 0 0 1 -893.91,-609.53 Z" fill="#0b1a23"/><path d="M 1190.40,626.40 L -893.91,-609.53 A 2423.20,2423.20 0 0 1 -864.59,-657.70 Z" fill="#0b1923"/><path d="M 1190.40,626.40 L -864.59,-657.70 A 2423.20,2423.20 0 0 1 -834.15,-705.17 Z" fill="#0b1923"/><path d="M 1190.40,626.40 L -834.15,-705.17 A 2423.20,2423.20 0 0 1 -802.62,-751.92 Z" fill="#0b1923"/><path d="M 1190.40,626.40 L -802.62,-751.92 A 2423.20,2423.20 0 0 1 -770.01,-797.92 Z" fill="#0b1923"/><path d="M 1190.40,626.40 L -770.01,-797.92 A 2423.20,2423.20 0 0 1 -736.34,-843.15 Z" fill="#0b1823"/><path d="M 1190.40,626.40 L -736.34,-843.15 A 2423.20,2423.20 0 0 1 -701.62,-887.59 Z" fill="#0b1822"/><path d="M 1190.40,626.40 L -701.62,-887.59 A 2423.20,2423.20 0 0 1 -665.88,-931.20 Z" fill="#0b1822"/><path d="M 1190.40,626.40 L -665.88,-931.20 A 2423.20,2423.20 0 0 1 -629.13,-973.97 Z" fill="#0b1822"/><path d="M 1190.40,626.40 L -629.13,-973.97 A 2423.20,2423.20 0 0 1 -591.40,-1015.88 Z" fill="#0b1722"/><path d="M 1190.40,626.40 L -591.40,-1015.88 A 2423.20,2423.20 0 0 1 -552.70,-1056.89 Z" fill="#0b1722"/><path d="M 1190.40,626.40 L -552.70,-1056.89 A 2423.20,2423.20 0 0 1 -513.06,-1097.00 Z" fill="#0b1722"/><path d="M 1190.40,626.40 L -513.06,-1097.00 A 2423.20,2423.20 0 0 1 -472.50,-1136.17 Z" fill="#0b1722"/><path d="M 1190.40,626.40 L -472.50,-1136.17 A 2423.20,2423.20 0 0 1 -431.04,-1174.39 Z" fill="#0b1622"/><path d="M 1190.40,626.40 L -431.04,-1174.39 A 2423.20,2423.20 0 0 1 -388.69,-1211.63 Z" fill="#0b1622"/><path d="M 1190.40,626.40 L -388.69,-1211.63 A 2423.20,2423.20 0 0 1 -345.50,-1247.87 Z" fill="#0b1622"/><path d="M 1190.40,626.40 L -345.50,-1247.87 A 2423.20,2423.20 0 0 1 -301.47,-1283.11 Z" fill="#0b1621"/><path d="M 1190.40,626.40 L -301.47,-1283.11 A 2423.20,2423.20 0 0 1 -256.63,-1317.30 Z" fill="#0b1521"/><path d="M 1190.40,626.40 L -256.63,-1317.30 A 2423.20,2423.20 0 0 1 -211.01,-1350.45 Z" fill="#0b1521"/><path d="M 1190.40,626.40 L -211.01,-1350.45 A 2423.20,2423.20 0 0 1 -164.64,-1382.52 Z" fill="#0b1521"/><path d="M 1190.40,626.40 L -164.64,-1382.52 A 2423.20,2423.20 0 0 1 -117.52,-1413.51 Z" fill="#0b1521"/><path d="M 1190.40,626.40 L -117.52,-1413.51 A 2423.20,2423.20 0 0 1 -69.70,-1443.39 Z" fill="#0b1421"/><path d="M 1190.40,626.40 L -69.70,-1443.39 A 2423.20,2423.20 0 0 1 -21.20,-1472.15 Z" fill="#0b1421"/><path d="M 1190.40,626.40 L -21.20,-1472.15 A 2423.20,2423.20 0 0 1 27.96,-1499.78 Z" fill="#0b1421"/><path d="M 1190.40,626.40 L 27.96,-1499.78 A 2423.20,2423.20 0 0 1 77.75,-1526.25 Z" fill="#0b1421"/><path d="M 1190.40,626.40 L 77.75,-1526.25 A 2423.20,2423.20 0 0 1 128.14,-1551.56 Z" fill="#0b1321"/><path d="M 1190.40,626.40 L 128.14,-1551.56 A 2423.20,2423.20 0 0 1 179.11,-1575.68 Z" fill="#0b1320"/><path d="M 1190.40,626.40 L 179.11,-1575.68 A 2423.20,2423.20 0 0 1 230.62,-1598.62 Z" fill="#0b1320"/><path d="M 1190.40,626.40 L 230.62,-1598.62 A 2423.20,2423.20 0 0 1 282.65,-1620.35 Z" fill="#0b1320"/><path d="M 1190.40,626.40 L 282.65,-1620.35 A 2423.20,2423.20 0 0 1 335.18,-1640.86 Z" fill="#0b1220"/><path d="M 1190.40,626.40 L 335.18,-1640.86 A 2423.20,2423.20 0 0 1 388.17,-1660.15 Z" fill="#0b1220"/><path d="M 1190.40,626.40 L 388.17,-1660.15 A 2423.20,2423.20 0 0 1 441.59,-1678.20 Z" fill="#0b1220"/></g><rect x="0" y="0" width="1920" height="1080" fill="url(#vignette)"/></g>
<g id="ribbons" filter="url(#ribbonShadow)"><path d="M -121.67,463.52 L -111.09,464.02 L -100.54,464.53 L -90.01,465.07 L -79.50,465.62 L -69.01,466.19 L -58.55,466.78 L -48.10,467.39 L -37.68,468.02 L -27.27,468.66 L -16.89,469.32 L -6.53,470.00 L 3.80,470.70 L 14.12,471.41 L 24.41,472.14 L 34.68,472.88 L 44.93,473.64 L 55.15,474.42 L 65.35,475.21 L 75.53,476.02 L 85.68,476.84 L 95.81,477.67 L 105.92,478.52 L 116.01,479.38 L 126.07,480.26 L 136.10,481.15 L 146.11,482.06 L 156.10,482.97 L 166.06,483.90 L 176.00,484.84 L 185.92,485.80 L 195.80,486.76 L 205.67,487.74 L 215.51,488.73 L 225.32,489.72 L 235.11,490.73 L 244.87,491.75 L 254.61,492.78 L 264.32,493.82 L 274.00,494.87 L 283.66,495.93 L 293.29,497.00 L 302.90,498.08 L 312.48,499.16 L 322.03,500.25 L 331.55,501.36 L 341.05,502.47 L 350.52,503.58 L 359.97,504.71 L 369.38,505.84 L 378.77,506.97 L 388.13,508.12 L 397.46,509.27 L 406.77,510.42 L 416.04,511.58 L 425.29,512.75 L 434.51,513.92 L 443.70,515.09 L 452.86,516.27 L 462.00,517.46 L 471.10,518.65 L 480.18,519.84 L 489.22,521.03 L 498.24,522.23 L 507.22,523.43 L 516.18,524.64 L 525.10,525.84 L 534.00,527.05 L 542.87,528.26 L 551.70,529.47 L 560.51,530.68 L 569.28,531.89 L 578.02,533.10 L 586.74,534.32 L 595.42,535.53 L 604.07,536.74 L 612.69,537.96 L 621.27,539.17 L 629.83,540.38 L 638.35,541.59 L 646.84,542.79 L 655.30,544.00 L 663.73,545.20 L 672.12,546.40 L 680.48,547.60 L 688.81,548.80 L 697.11,549.99 L 705.37,551.18 L 713.60,552.36 L 721.80,553.54 L 729.96,554.72 L 738.09,555.89 L 746.19,557.05 L 754.25,558.21 L 762.27,559.37 L 770.27,560.52 L 778.23,561.66 L 786.15,562.80 L 794.04,563.93 L 801.89,565.05 L 809.71,566.16 L 817.50,567.27 L 825.25,568.37 L 832.96,569.46 L 840.64,570.55 L 848.28,571.62 L 855.89,572.69 L 863.46,573.75 L 870.99,574.79 L 878.49,575.83 L 885.95,576.86 L 893.37,577.88 L 900.76,578.88 L 908.11,579.88 L 915.43,580.86 L 922.70,581.84 L 929.94,582.80 L 937.14,583.75 L 944.30,584.69 L 951.43,585.61 L 958.52,586.52 L 965.57,587.42 L 972.58,588.30 L 979.55,589.18 L 986.48,590.03 L 993.37,590.88 L 1000.23,591.70 L 1007.04,592.52 L 1013.82,593.32 L 1020.56,594.10 L 1027.25,594.86 L 1033.91,595.62 L 1040.53,596.35 L 1047.10,597.07 L 1053.64,597.77 L 1060.13,598.45 L 1066.59,599.12 L 1073.00,599.77 L 1079.37,600.40 L 1085.70,601.01 L 1091.99,601.61 M 1096.81,571.99 L 1090.71,570.56 L 1084.58,569.11 L 1078.40,567.65 L 1072.18,566.16 L 1065.93,564.66 L 1059.63,563.14 L 1053.30,561.60 L 1046.92,560.05 L 1040.50,558.48 L 1034.05,556.90 L 1027.55,555.29 L 1021.01,553.68 L 1014.44,552.04 L 1007.82,550.40 L 1001.17,548.73 L 994.47,547.06 L 987.74,545.36 L 980.97,543.66 L 974.16,541.94 L 967.31,540.21 L 960.42,538.46 L 953.49,536.70 L 946.52,534.93 L 939.51,533.14 L 932.47,531.35 L 925.39,529.54 L 918.26,527.72 L 911.10,525.88 L 903.91,524.04 L 896.67,522.19 L 889.40,520.32 L 882.08,518.45 L 874.73,516.56 L 867.34,514.67 L 859.92,512.76 L 852.46,510.85 L 844.96,508.93 L 837.42,507.00 L 829.84,505.06 L 822.23,503.11 L 814.58,501.15 L 806.90,499.19 L 799.17,497.22 L 791.41,495.24 L 783.62,493.26 L 775.78,491.27 L 767.91,489.27 L 760.01,487.27 L 752.07,485.26 L 744.09,483.24 L 736.07,481.22 L 728.02,479.20 L 719.94,477.17 L 711.81,475.13 L 703.66,473.10 L 695.46,471.05 L 687.24,469.01 L 678.97,466.96 L 670.67,464.91 L 662.34,462.85 L 653.97,460.80 L 645.57,458.74 L 637.13,456.68 L 628.66,454.62 L 620.15,452.55 L 611.61,450.49 L 603.03,448.42 L 594.42,446.35 L 585.77,444.29 L 577.09,442.22 L 568.38,440.15 L 559.63,438.09 L 550.85,436.02 L 542.04,433.96 L 533.19,431.90 L 524.31,429.84 L 515.39,427.78 L 506.45,425.72 L 497.47,423.67 L 488.45,421.61 L 479.40,419.57 L 470.32,417.52 L 461.21,415.48 L 452.07,413.44 L 442.89,411.41 L 433.68,409.38 L 424.44,407.35 L 415.17,405.33 L 405.86,403.32 L 396.52,401.31 L 387.15,399.31 L 377.75,397.31 L 368.32,395.32 L 358.85,393.34 L 349.36,391.36 L 339.83,389.39 L 330.27,387.43 L 320.68,385.47 L 311.06,383.53 L 301.41,381.59 L 291.73,379.66 L 282.01,377.74 L 272.27,375.82 L 262.50,373.92 L 252.69,372.03 L 242.86,370.15 L 232.99,368.27 L 223.10,366.41 L 213.17,364.56 L 203.22,362.72 L 193.24,360.89 L 183.22,359.07 L 173.18,357.27 L 163.11,355.48 L 153.01,353.70 L 142.87,351.93 L 132.71,350.17 L 122.53,348.43 L 112.31,346.71 L 102.06,344.99 L 91.79,343.29 L 81.48,341.61 L 71.15,339.94 L 60.79,338.28 L 50.40,336.64 L 39.99,335.02 L 29.54,333.41 L 19.07,331.82 L 8.57,330.24 L -1.96,328.68 L -12.51,327.14 L -23.10,325.62 L -33.71,324.11 L -44.34,322.62 L -55.01,321.15 L -65.70,319.70 L -76.42,318.26 L -87.16,316.85 L -97.94,315.45 L -108.73,314.08 Z" fill="url(#ribGrad1)" opacity="0.96"/><path d="M -124.80,600.34 L -114.80,601.04 L -104.79,601.73 L -94.78,602.41 L -84.75,603.09 L -74.71,603.75 L -64.67,604.42 L -54.62,605.07 L -44.56,605.72 L -34.50,606.36 L -24.44,607.00 L -14.36,607.62 L -4.29,608.24 L 5.79,608.86 L 15.87,609.46 L 25.95,610.06 L 36.04,610.65 L 46.12,611.23 L 56.21,611.81 L 66.29,612.38 L 76.37,612.94 L 86.46,613.50 L 96.54,614.04 L 106.61,614.58 L 116.68,615.12 L 126.75,615.64 L 136.82,616.16 L 146.88,616.67 L 156.93,617.17 L 166.97,617.66 L 177.01,618.15 L 187.04,618.63 L 197.07,619.10 L 207.08,619.56 L 217.08,620.02 L 227.07,620.47 L 237.06,620.91 L 247.03,621.34 L 256.98,621.77 L 266.93,622.18 L 276.86,622.59 L 286.78,622.99 L 296.68,623.38 L 306.57,623.77 L 316.44,624.14 L 326.30,624.51 L 336.13,624.87 L 345.95,625.22 L 355.76,625.57 L 365.54,625.90 L 375.30,626.23 L 385.04,626.55 L 394.77,626.86 L 404.47,627.16 L 414.14,627.46 L 423.80,627.74 L 433.43,628.02 L 443.04,628.29 L 452.62,628.55 L 462.18,628.80 L 471.71,629.04 L 481.22,629.27 L 490.69,629.50 L 500.14,629.72 L 509.57,629.92 L 518.96,630.12 L 528.32,630.31 L 537.65,630.50 L 546.96,630.67 L 556.23,630.83 L 565.47,630.99 L 574.67,631.13 L 583.84,631.27 L 592.98,631.40 L 602.08,631.52 L 611.15,631.63 L 620.18,631.73 L 629.18,631.82 L 638.14,631.90 L 647.06,631.98 L 655.94,632.04 L 664.78,632.10 L 673.59,632.14 L 682.35,632.18 L 691.07,632.21 L 699.75,632.22 L 708.39,632.23 L 716.98,632.23 L 725.54,632.22 L 734.04,632.20 L 742.51,632.17 L 750.92,632.13 L 759.30,632.08 L 767.62,632.02 L 775.90,631.96 L 784.13,631.88 L 792.31,631.79 L 800.44,631.69 L 808.53,631.59 L 816.56,631.47 L 824.54,631.34 L 832.47,631.21 L 840.35,631.06 L 848.17,630.90 L 855.94,630.73 L 863.66,630.56 L 871.32,630.37 L 878.93,630.17 L 886.48,629.97 L 893.97,629.75 L 901.41,629.52 L 908.78,629.29 L 916.10,629.04 L 923.37,628.78 L 930.57,628.51 L 937.71,628.23 L 944.78,627.94 L 951.80,627.64 L 958.76,627.33 L 965.65,627.01 L 972.48,626.68 L 979.24,626.34 L 985.94,625.99 L 992.57,625.62 L 999.14,625.25 L 1005.64,624.87 L 1012.07,624.47 L 1018.44,624.07 L 1024.73,623.65 L 1030.96,623.22 L 1037.11,622.78 L 1043.20,622.33 L 1049.21,621.87 L 1055.15,621.40 L 1061.02,620.92 L 1066.82,620.43 L 1072.54,619.92 L 1078.19,619.41 L 1083.76,618.88 L 1089.25,618.35 L 1094.67,617.80 M 1094.13,583.80 L 1088.77,583.41 L 1083.34,583.01 L 1077.84,582.60 L 1072.26,582.18 L 1066.61,581.75 L 1060.89,581.31 L 1055.09,580.85 L 1049.23,580.39 L 1043.29,579.91 L 1037.28,579.43 L 1031.21,578.93 L 1025.06,578.42 L 1018.85,577.90 L 1012.57,577.37 L 1006.22,576.83 L 999.81,576.28 L 993.33,575.72 L 986.78,575.15 L 980.17,574.57 L 973.50,573.98 L 966.76,573.37 L 959.96,572.76 L 953.10,572.14 L 946.17,571.50 L 939.19,570.86 L 932.15,570.20 L 925.04,569.54 L 917.88,568.86 L 910.66,568.18 L 903.38,567.48 L 896.04,566.78 L 888.65,566.06 L 881.20,565.34 L 873.70,564.60 L 866.14,563.85 L 858.53,563.10 L 850.87,562.33 L 843.15,561.56 L 835.38,560.77 L 827.56,559.98 L 819.68,559.17 L 811.76,558.36 L 803.79,557.53 L 795.77,556.70 L 787.70,555.85 L 779.58,555.00 L 771.42,554.14 L 763.21,553.27 L 754.96,552.38 L 746.65,551.49 L 738.31,550.59 L 729.92,549.68 L 721.49,548.76 L 713.01,547.83 L 704.50,546.89 L 695.94,545.94 L 687.34,544.99 L 678.70,544.02 L 670.02,543.04 L 661.30,542.06 L 652.55,541.07 L 643.76,540.06 L 634.93,539.05 L 626.06,538.03 L 617.16,537.00 L 608.22,535.96 L 599.25,534.91 L 590.24,533.85 L 581.21,532.79 L 572.13,531.71 L 563.03,530.63 L 553.90,529.54 L 544.73,528.43 L 535.54,527.32 L 526.32,526.21 L 517.06,525.08 L 507.78,523.94 L 498.48,522.80 L 489.14,521.64 L 479.78,520.48 L 470.39,519.31 L 460.98,518.13 L 451.55,516.95 L 442.09,515.75 L 432.61,514.55 L 423.10,513.34 L 413.58,512.12 L 404.03,510.89 L 394.46,509.65 L 384.88,508.40 L 375.27,507.15 L 365.64,505.89 L 356.00,504.62 L 346.34,503.34 L 336.66,502.06 L 326.97,500.76 L 317.26,499.46 L 307.54,498.15 L 297.80,496.84 L 288.05,495.51 L 278.29,494.18 L 268.52,492.84 L 258.73,491.49 L 248.93,490.13 L 239.13,488.77 L 229.31,487.40 L 219.48,486.02 L 209.65,484.63 L 199.81,483.24 L 189.96,481.84 L 180.10,480.43 L 170.24,479.01 L 160.37,477.59 L 150.50,476.15 L 140.63,474.72 L 130.75,473.27 L 120.87,471.82 L 110.99,470.35 L 101.10,468.89 L 91.22,467.41 L 81.34,465.93 L 71.45,464.44 L 61.57,462.94 L 51.69,461.44 L 41.81,459.93 L 31.94,458.41 L 22.07,456.89 L 12.20,455.36 L 2.34,453.82 L -7.51,452.28 L -17.36,450.72 L -27.20,449.17 L -37.04,447.60 L -46.86,446.03 L -56.68,444.45 L -66.48,442.87 L -76.28,441.27 L -86.06,439.68 L -95.84,438.07 L -105.60,436.46 Z" fill="url(#ribGrad2)" opacity="0.96"/><path d="M -118.81,781.13 L -107.09,781.08 L -95.39,781.00 L -83.72,780.90 L -72.08,780.77 L -60.46,780.62 L -48.88,780.44 L -37.32,780.23 L -25.79,780.00 L -14.30,779.74 L -2.83,779.46 L 8.61,779.16 L 20.01,778.83 L 31.38,778.48 L 42.73,778.10 L 54.04,777.70 L 65.32,777.28 L 76.56,776.84 L 87.77,776.37 L 98.95,775.88 L 110.10,775.37 L 121.21,774.84 L 132.29,774.28 L 143.33,773.71 L 154.34,773.11 L 165.31,772.49 L 176.25,771.86 L 187.15,771.20 L 198.01,770.53 L 208.84,769.83 L 219.63,769.12 L 230.38,768.38 L 241.09,767.63 L 251.77,766.86 L 262.41,766.07 L 273.00,765.26 L 283.56,764.44 L 294.08,763.60 L 304.56,762.74 L 315.00,761.86 L 325.40,760.97 L 335.75,760.06 L 346.07,759.14 L 356.34,758.20 L 366.57,757.24 L 376.76,756.27 L 386.91,755.29 L 397.01,754.29 L 407.07,753.28 L 417.08,752.25 L 427.05,751.20 L 436.98,750.15 L 446.86,749.08 L 456.69,748.00 L 466.48,746.90 L 476.23,745.79 L 485.92,744.67 L 495.57,743.54 L 505.17,742.40 L 514.73,741.24 L 524.24,740.08 L 533.70,738.90 L 543.11,737.71 L 552.47,736.51 L 561.78,735.31 L 571.04,734.09 L 580.25,732.86 L 589.41,731.62 L 598.52,730.38 L 607.58,729.12 L 616.59,727.86 L 625.55,726.58 L 634.45,725.30 L 643.30,724.02 L 652.10,722.72 L 660.84,721.42 L 669.53,720.11 L 678.17,718.79 L 686.75,717.47 L 695.28,716.14 L 703.75,714.80 L 712.17,713.46 L 720.53,712.11 L 728.84,710.76 L 737.08,709.40 L 745.27,708.04 L 753.41,706.68 L 761.48,705.31 L 769.50,703.93 L 777.46,702.56 L 785.36,701.18 L 793.20,699.79 L 800.98,698.40 L 808.71,697.01 L 816.37,695.62 L 823.97,694.23 L 831.51,692.83 L 838.99,691.44 L 846.41,690.04 L 853.76,688.64 L 861.05,687.24 L 868.28,685.84 L 875.45,684.44 L 882.55,683.03 L 889.59,681.63 L 896.57,680.23 L 903.48,678.83 L 910.32,677.44 L 917.10,676.04 L 923.81,674.64 L 930.46,673.25 L 937.04,671.86 L 943.56,670.47 L 950.01,669.08 L 956.39,667.70 L 962.70,666.32 L 968.94,664.94 L 975.12,663.57 L 981.22,662.20 L 987.26,660.83 L 993.23,659.47 L 999.12,658.11 L 1004.95,656.76 L 1010.70,655.42 L 1016.39,654.07 L 1022.00,652.74 L 1027.54,651.41 L 1033.01,650.09 L 1038.40,648.77 L 1043.73,647.46 L 1048.98,646.16 L 1054.15,644.86 L 1059.25,643.57 L 1064.28,642.29 L 1069.23,641.02 L 1074.11,639.76 L 1078.91,638.50 L 1083.63,637.25 L 1088.28,636.02 L 1092.86,634.79 L 1097.35,633.57 M 1091.45,596.03 L 1086.82,596.24 L 1082.11,596.47 L 1077.33,596.70 L 1072.47,596.94 L 1067.54,597.19 L 1062.54,597.45 L 1057.46,597.71 L 1052.31,597.98 L 1047.09,598.27 L 1041.79,598.55 L 1036.43,598.85 L 1030.99,599.15 L 1025.49,599.46 L 1019.91,599.77 L 1014.26,600.09 L 1008.54,600.42 L 1002.76,600.75 L 996.90,601.08 L 990.98,601.42 L 984.99,601.77 L 978.93,602.12 L 972.81,602.47 L 966.61,602.83 L 960.35,603.19 L 954.03,603.56 L 947.64,603.92 L 941.18,604.29 L 934.66,604.67 L 928.08,605.04 L 921.43,605.42 L 914.71,605.80 L 907.94,606.18 L 901.10,606.56 L 894.20,606.94 L 887.23,607.33 L 880.21,607.71 L 873.12,608.10 L 865.97,608.48 L 858.77,608.87 L 851.50,609.25 L 844.17,609.63 L 836.78,610.01 L 829.34,610.39 L 821.83,610.77 L 814.27,611.15 L 806.65,611.53 L 798.97,611.90 L 791.23,612.27 L 783.44,612.64 L 775.59,613.00 L 767.69,613.36 L 759.73,613.72 L 751.71,614.07 L 743.64,614.42 L 735.52,614.77 L 727.34,615.11 L 719.11,615.44 L 710.82,615.77 L 702.49,616.10 L 694.10,616.42 L 685.66,616.73 L 677.16,617.04 L 668.62,617.34 L 660.02,617.63 L 651.38,617.92 L 642.68,618.20 L 633.94,618.47 L 625.14,618.74 L 616.30,618.99 L 607.41,619.24 L 598.47,619.48 L 589.48,619.72 L 580.45,619.94 L 571.37,620.15 L 562.24,620.36 L 553.07,620.55 L 543.85,620.73 L 534.58,620.91 L 525.28,621.07 L 515.92,621.23 L 506.52,621.37 L 497.08,621.50 L 487.60,621.62 L 478.07,621.73 L 468.50,621.82 L 458.89,621.90 L 449.24,621.97 L 439.54,622.03 L 429.81,622.08 L 420.03,622.11 L 410.21,622.13 L 400.36,622.13 L 390.46,622.12 L 380.53,622.10 L 370.55,622.06 L 360.54,622.01 L 350.49,621.94 L 340.41,621.86 L 330.29,621.76 L 320.13,621.64 L 309.93,621.51 L 299.70,621.37 L 289.43,621.20 L 279.13,621.02 L 268.80,620.82 L 258.43,620.61 L 248.02,620.38 L 237.59,620.13 L 227.12,619.86 L 216.61,619.57 L 206.08,619.27 L 195.51,618.95 L 184.91,618.60 L 174.29,618.24 L 163.63,617.86 L 152.94,617.46 L 142.22,617.04 L 131.47,616.60 L 120.69,616.14 L 109.89,615.65 L 99.05,615.15 L 88.19,614.63 L 77.30,614.08 L 66.39,613.51 L 55.45,612.92 L 44.48,612.31 L 33.49,611.68 L 22.47,611.02 L 11.42,610.34 L 0.35,609.64 L -10.74,608.91 L -21.85,608.16 L -32.99,607.38 L -44.16,606.59 L -55.34,605.76 L -66.55,604.91 L -77.78,604.04 L -89.03,603.14 L -100.30,602.22 L -111.59,601.27 Z" fill="url(#ribGrad3)" opacity="0.96"/><path d="M -111.98,961.45 L -97.75,960.41 L -83.60,959.33 L -69.52,958.21 L -55.52,957.05 L -41.59,955.86 L -27.74,954.62 L -13.96,953.35 L -0.26,952.05 L 13.37,950.70 L 26.92,949.32 L 40.40,947.91 L 53.80,946.45 L 67.12,944.97 L 80.37,943.45 L 93.55,941.90 L 106.64,940.31 L 119.66,938.69 L 132.61,937.04 L 145.48,935.36 L 158.27,933.65 L 170.98,931.91 L 183.62,930.13 L 196.18,928.33 L 208.67,926.50 L 221.08,924.64 L 233.41,922.75 L 245.66,920.83 L 257.83,918.89 L 269.93,916.92 L 281.95,914.92 L 293.89,912.90 L 305.76,910.86 L 317.54,908.78 L 329.25,906.69 L 340.88,904.57 L 352.43,902.43 L 363.90,900.26 L 375.30,898.08 L 386.61,895.87 L 397.85,893.64 L 409.00,891.39 L 420.08,889.12 L 431.08,886.83 L 442.00,884.52 L 452.84,882.19 L 463.60,879.85 L 474.28,877.48 L 484.88,875.10 L 495.40,872.70 L 505.84,870.29 L 516.20,867.86 L 526.48,865.41 L 536.68,862.95 L 546.80,860.48 L 556.84,857.99 L 566.79,855.49 L 576.67,852.98 L 586.47,850.45 L 596.18,847.91 L 605.81,845.36 L 615.36,842.80 L 624.83,840.23 L 634.22,837.65 L 643.53,835.06 L 652.76,832.47 L 661.90,829.86 L 670.96,827.24 L 679.94,824.62 L 688.84,821.99 L 697.65,819.36 L 706.38,816.71 L 715.03,814.07 L 723.60,811.42 L 732.08,808.76 L 740.48,806.10 L 748.80,803.43 L 757.04,800.77 L 765.19,798.10 L 773.26,795.43 L 781.24,792.75 L 789.14,790.08 L 796.96,787.40 L 804.69,784.73 L 812.34,782.05 L 819.91,779.38 L 827.39,776.71 L 834.78,774.04 L 842.10,771.37 L 849.32,768.70 L 856.47,766.04 L 863.53,763.38 L 870.50,760.73 L 877.39,758.08 L 884.19,755.44 L 890.91,752.80 L 897.54,750.17 L 904.09,747.54 L 910.55,744.92 L 916.93,742.31 L 923.22,739.71 L 929.42,737.12 L 935.54,734.53 L 941.57,731.96 L 947.52,729.39 L 953.38,726.84 L 959.16,724.30 L 964.84,721.76 L 970.44,719.24 L 975.96,716.74 L 981.38,714.24 L 986.72,711.76 L 991.98,709.30 L 997.14,706.84 L 1002.22,704.41 L 1007.21,701.98 L 1012.11,699.58 L 1016.93,697.19 L 1021.66,694.82 L 1026.30,692.46 L 1030.85,690.12 L 1035.31,687.80 L 1039.69,685.50 L 1043.97,683.22 L 1048.17,680.96 L 1052.28,678.72 L 1056.31,676.50 L 1060.24,674.30 L 1064.08,672.12 L 1067.84,669.97 L 1071.50,667.83 L 1075.08,665.72 L 1078.57,663.64 L 1081.97,661.57 L 1085.28,659.54 L 1088.49,657.52 L 1091.62,655.53 L 1094.66,653.57 L 1097.61,651.64 L 1100.47,649.73 L 1103.24,647.85 M 1085.56,609.75 L 1082.48,610.57 L 1079.31,611.42 L 1076.06,612.29 L 1072.73,613.19 L 1069.31,614.11 L 1065.80,615.05 L 1062.21,616.02 L 1058.53,617.02 L 1054.77,618.03 L 1050.92,619.07 L 1046.99,620.13 L 1042.97,621.21 L 1038.87,622.31 L 1034.69,623.43 L 1030.42,624.57 L 1026.07,625.73 L 1021.63,626.91 L 1017.11,628.11 L 1012.51,629.33 L 1007.82,630.56 L 1003.05,631.81 L 998.20,633.08 L 993.26,634.36 L 988.25,635.66 L 983.14,636.97 L 977.96,638.30 L 972.69,639.65 L 967.35,641.00 L 961.92,642.37 L 956.40,643.75 L 950.81,645.15 L 945.13,646.55 L 939.38,647.97 L 933.54,649.40 L 927.62,650.84 L 921.62,652.28 L 915.54,653.74 L 909.37,655.21 L 903.13,656.68 L 896.81,658.17 L 890.40,659.66 L 883.92,661.16 L 877.35,662.66 L 870.71,664.17 L 863.99,665.69 L 857.18,667.21 L 850.30,668.73 L 843.34,670.26 L 836.29,671.80 L 829.17,673.33 L 821.97,674.87 L 814.69,676.42 L 807.34,677.96 L 799.90,679.51 L 792.38,681.05 L 784.79,682.60 L 777.12,684.15 L 769.37,685.69 L 761.54,687.24 L 753.64,688.78 L 745.66,690.32 L 737.60,691.86 L 729.46,693.40 L 721.25,694.94 L 712.96,696.47 L 704.59,697.99 L 696.14,699.51 L 687.62,701.03 L 679.02,702.54 L 670.35,704.04 L 661.60,705.54 L 652.77,707.03 L 643.87,708.52 L 634.89,709.99 L 625.84,711.46 L 616.71,712.92 L 607.50,714.37 L 598.22,715.80 L 588.87,717.23 L 579.44,718.65 L 569.93,720.06 L 560.35,721.45 L 550.70,722.84 L 540.97,724.21 L 531.17,725.56 L 521.29,726.91 L 511.34,728.24 L 501.31,729.55 L 491.22,730.85 L 481.04,732.14 L 470.80,733.41 L 460.48,734.66 L 450.09,735.90 L 439.62,737.12 L 429.08,738.32 L 418.47,739.50 L 407.79,740.67 L 397.03,741.81 L 386.20,742.94 L 375.30,744.04 L 364.33,745.13 L 353.29,746.19 L 342.17,747.24 L 330.98,748.26 L 319.72,749.25 L 308.39,750.23 L 296.99,751.18 L 285.51,752.11 L 273.97,753.02 L 262.35,753.90 L 250.67,754.75 L 238.91,755.58 L 227.08,756.39 L 215.18,757.16 L 203.22,757.91 L 191.18,758.63 L 179.07,759.33 L 166.89,760.00 L 154.64,760.63 L 142.33,761.24 L 129.94,761.82 L 117.48,762.37 L 104.96,762.89 L 92.36,763.37 L 79.70,763.83 L 66.97,764.25 L 54.17,764.64 L 41.30,765.00 L 28.36,765.32 L 15.36,765.61 L 2.28,765.87 L -10.86,766.09 L -24.07,766.28 L -37.35,766.43 L -50.69,766.54 L -64.10,766.62 L -77.58,766.66 L -91.13,766.66 L -104.74,766.63 L -118.42,766.55 Z" fill="url(#ribGrad4)" opacity="0.96"/><path d="M -115.20,388.80 L -104.51,389.74 L -93.85,390.69 L -83.21,391.67 L -72.60,392.66 L -62.01,393.67 L -51.44,394.70 L -40.90,395.75 L -30.39,396.82 L -19.89,397.90 L -9.43,399.00 L 1.02,400.12 L 11.44,401.26 L 21.83,402.41 L 32.20,403.58 L 42.54,404.76 L 52.86,405.96 L 63.15,407.18 L 73.42,408.41 L 83.66,409.65 L 93.87,410.91 L 104.06,412.19 L 114.22,413.48 L 124.36,414.78 L 134.47,416.10 L 144.55,417.42 L 154.61,418.77 L 164.64,420.12 L 174.64,421.49 L 184.62,422.87 L 194.57,424.26 L 204.49,425.66 L 214.38,427.07 L 224.25,428.50 L 234.09,429.94 L 243.90,431.38 L 253.68,432.84 L 263.44,434.30 L 273.17,435.78 L 282.86,437.26 L 292.53,438.76 L 302.18,440.26 L 311.79,441.77 L 321.37,443.29 L 330.93,444.82 L 340.45,446.36 L 349.95,447.90 L 359.42,449.45 L 368.86,451.01 L 378.27,452.57 L 387.65,454.14 L 396.99,455.72 L 406.31,457.30 L 415.60,458.89 L 424.86,460.48 L 434.09,462.08 L 443.29,463.68 L 452.46,465.29 L 461.59,466.90 L 470.70,468.51 L 479.78,470.13 L 488.82,471.75 L 497.83,473.38 L 506.82,475.00 L 515.77,476.63 L 524.68,478.27 L 533.57,479.90 L 542.43,481.54 L 551.25,483.17 L 560.04,484.81 L 568.80,486.45 L 577.53,488.09 L 586.22,489.73 L 594.88,491.37 L 603.51,493.01 L 612.11,494.65 L 620.67,496.29 L 629.20,497.92 L 637.70,499.56 L 646.16,501.19 L 654.59,502.82 L 662.99,504.45 L 671.35,506.08 L 679.68,507.71 L 687.97,509.33 L 696.24,510.95 L 704.46,512.56 L 712.65,514.17 L 720.81,515.78 L 728.94,517.38 L 737.02,518.98 L 745.08,520.57 L 753.10,522.16 L 761.08,523.74 L 769.03,525.32 L 776.94,526.89 L 784.82,528.45 L 792.66,530.01 L 800.47,531.56 L 808.24,533.10 L 815.97,534.64 L 823.67,536.16 L 831.33,537.68 L 838.96,539.20 L 846.55,540.70 L 854.10,542.19 L 861.62,543.68 L 869.09,545.15 L 876.54,546.62 L 883.94,548.08 L 891.31,549.52 L 898.64,550.96 L 905.93,552.38 L 913.19,553.80 L 920.41,555.20 L 927.59,556.59 L 934.73,557.97 L 941.83,559.34 L 948.90,560.69 L 955.92,562.03 L 962.91,563.36 L 969.86,564.68 L 976.77,565.98 L 983.64,567.27 L 990.48,568.54 L 997.27,569.80 L 1004.03,571.05 L 1010.74,572.28 L 1017.42,573.50 L 1024.05,574.70 L 1030.65,575.88 L 1037.21,577.05 L 1043.72,578.20 L 1050.20,579.34 L 1056.64,580.46 L 1063.03,581.56 L 1069.39,582.64 L 1075.70,583.71 L 1081.98,584.76 L 1088.21,585.79 L 1094.40,586.80" fill="none" stroke="#ffffff" stroke-opacity="0.22" stroke-width="6.6" filter="url(#softGlow)" stroke-linecap="round"/><path d="M -115.20,518.40 L -105.32,519.55 L -95.43,520.70 L -85.53,521.84 L -75.62,522.98 L -65.69,524.10 L -55.77,525.22 L -45.83,526.34 L -35.88,527.44 L -25.93,528.54 L -15.97,529.64 L -6.01,530.72 L 3.96,531.80 L 13.93,532.87 L 23.90,533.94 L 33.88,535.00 L 43.86,536.05 L 53.85,537.09 L 63.83,538.13 L 73.81,539.16 L 83.80,540.18 L 93.78,541.19 L 103.76,542.20 L 113.74,543.20 L 123.72,544.19 L 133.69,545.18 L 143.66,546.16 L 153.62,547.13 L 163.58,548.09 L 173.54,549.05 L 183.48,549.99 L 193.42,550.93 L 203.36,551.87 L 213.28,552.79 L 223.19,553.71 L 233.10,554.62 L 242.99,555.52 L 252.88,556.42 L 262.75,557.30 L 272.61,558.18 L 282.46,559.05 L 292.29,559.91 L 302.11,560.77 L 311.92,561.62 L 321.71,562.45 L 331.48,563.29 L 341.24,564.11 L 350.98,564.92 L 360.70,565.73 L 370.40,566.53 L 380.09,567.32 L 389.75,568.10 L 399.40,568.87 L 409.02,569.64 L 418.62,570.40 L 428.20,571.14 L 437.76,571.88 L 447.29,572.62 L 456.80,573.34 L 466.29,574.06 L 475.75,574.76 L 485.18,575.46 L 494.59,576.15 L 503.96,576.83 L 513.32,577.50 L 522.64,578.16 L 531.93,578.82 L 541.19,579.47 L 550.43,580.10 L 559.63,580.73 L 568.80,581.35 L 577.94,581.96 L 587.04,582.56 L 596.11,583.15 L 605.15,583.74 L 614.15,584.31 L 623.12,584.88 L 632.05,585.44 L 640.95,585.98 L 649.80,586.52 L 658.62,587.05 L 667.40,587.57 L 676.14,588.08 L 684.84,588.58 L 693.50,589.08 L 702.12,589.56 L 710.70,590.03 L 719.24,590.50 L 727.73,590.95 L 736.18,591.40 L 744.58,591.83 L 752.94,592.26 L 761.25,592.67 L 769.52,593.08 L 777.74,593.48 L 785.92,593.87 L 794.04,594.24 L 802.12,594.61 L 810.14,594.97 L 818.12,595.32 L 826.05,595.66 L 833.92,595.99 L 841.75,596.31 L 849.52,596.62 L 857.24,596.92 L 864.90,597.21 L 872.51,597.49 L 880.06,597.76 L 887.56,598.01 L 895.01,598.26 L 902.39,598.50 L 909.72,598.73 L 916.99,598.95 L 924.20,599.16 L 931.36,599.36 L 938.45,599.54 L 945.48,599.72 L 952.45,599.89 L 959.36,600.05 L 966.20,600.19 L 972.99,600.33 L 979.71,600.45 L 986.36,600.57 L 992.95,600.67 L 999.47,600.77 L 1005.93,600.85 L 1012.32,600.92 L 1018.64,600.98 L 1024.90,601.04 L 1031.08,601.08 L 1037.20,601.11 L 1043.24,601.12 L 1049.22,601.13 L 1055.12,601.13 L 1060.96,601.11 L 1066.72,601.09 L 1072.40,601.05 L 1078.01,601.01 L 1083.55,600.95 L 1089.01,600.88 L 1094.40,600.80" fill="none" stroke="#ffffff" stroke-opacity="0.22" stroke-width="7.5" filter="url(#softGlow)" stroke-linecap="round"/><path d="M -115.20,691.20 L -103.69,691.65 L -92.21,692.07 L -80.75,692.47 L -69.31,692.84 L -57.90,693.19 L -46.52,693.51 L -35.16,693.81 L -23.82,694.08 L -12.52,694.33 L -1.24,694.55 L 10.01,694.75 L 21.24,694.92 L 32.44,695.08 L 43.60,695.21 L 54.74,695.31 L 65.85,695.40 L 76.93,695.46 L 87.98,695.50 L 99.00,695.52 L 109.99,695.51 L 120.95,695.49 L 131.88,695.44 L 142.78,695.37 L 153.64,695.29 L 164.47,695.18 L 175.27,695.05 L 186.03,694.90 L 196.76,694.74 L 207.46,694.55 L 218.12,694.34 L 228.75,694.12 L 239.34,693.88 L 249.90,693.62 L 260.42,693.34 L 270.90,693.04 L 281.35,692.73 L 291.76,692.40 L 302.13,692.05 L 312.46,691.69 L 322.76,691.31 L 333.02,690.91 L 343.24,690.50 L 353.42,690.07 L 363.56,689.63 L 373.66,689.17 L 383.72,688.69 L 393.73,688.21 L 403.71,687.70 L 413.65,687.19 L 423.54,686.66 L 433.39,686.11 L 443.20,685.56 L 452.96,684.99 L 462.69,684.40 L 472.36,683.81 L 482.00,683.20 L 491.59,682.58 L 501.13,681.95 L 510.63,681.31 L 520.08,680.65 L 529.49,679.99 L 538.84,679.31 L 548.16,678.62 L 557.42,677.93 L 566.64,677.22 L 575.81,676.51 L 584.93,675.78 L 594.00,675.05 L 603.03,674.30 L 612.00,673.55 L 620.92,672.79 L 629.80,672.02 L 638.62,671.24 L 647.39,670.46 L 656.11,669.67 L 664.78,668.87 L 673.39,668.06 L 681.96,667.25 L 690.47,666.43 L 698.92,665.61 L 707.33,664.78 L 715.68,663.94 L 723.97,663.10 L 732.21,662.26 L 740.40,661.41 L 748.52,660.55 L 756.60,659.69 L 764.61,658.83 L 772.57,657.96 L 780.48,657.09 L 788.32,656.21 L 796.11,655.34 L 803.84,654.46 L 811.51,653.57 L 819.12,652.69 L 826.67,651.80 L 834.16,650.92 L 841.59,650.03 L 848.96,649.14 L 856.28,648.24 L 863.52,647.35 L 870.71,646.46 L 877.84,645.57 L 884.90,644.67 L 891.90,643.78 L 898.84,642.89 L 905.71,642.00 L 912.52,641.11 L 919.26,640.22 L 925.95,639.33 L 932.56,638.45 L 939.11,637.57 L 945.59,636.69 L 952.01,635.81 L 958.36,634.94 L 964.65,634.07 L 970.86,633.20 L 977.01,632.33 L 983.10,631.47 L 989.11,630.62 L 995.05,629.77 L 1000.93,628.92 L 1006.73,628.08 L 1012.47,627.24 L 1018.13,626.41 L 1023.72,625.59 L 1029.25,624.77 L 1034.70,623.96 L 1040.08,623.15 L 1045.39,622.35 L 1050.62,621.56 L 1055.78,620.78 L 1060.87,620.00 L 1065.88,619.23 L 1070.82,618.47 L 1075.69,617.72 L 1080.48,616.98 L 1085.20,616.24 L 1089.84,615.52 L 1094.40,614.80" fill="none" stroke="#ffffff" stroke-opacity="0.22" stroke-width="8.4" filter="url(#softGlow)" stroke-linecap="round"/><path d="M -115.20,864.00 L -101.25,863.52 L -87.36,863.00 L -73.55,862.44 L -59.81,861.84 L -46.14,861.20 L -32.54,860.53 L -19.02,859.82 L -5.56,859.07 L 7.83,858.29 L 21.14,857.47 L 34.38,856.61 L 47.55,855.73 L 60.65,854.81 L 73.67,853.85 L 86.62,852.86 L 99.50,851.84 L 112.31,850.79 L 125.05,849.71 L 137.71,848.59 L 150.30,847.44 L 162.81,846.27 L 175.26,845.06 L 187.63,843.83 L 199.92,842.57 L 212.15,841.27 L 224.29,839.95 L 236.37,838.61 L 248.37,837.24 L 260.30,835.84 L 272.15,834.41 L 283.93,832.96 L 295.63,831.48 L 307.26,829.98 L 318.82,828.46 L 330.30,826.91 L 341.71,825.34 L 353.04,823.75 L 364.29,822.13 L 375.47,820.50 L 386.57,818.84 L 397.60,817.16 L 408.56,815.46 L 419.43,813.75 L 430.24,812.01 L 440.96,810.25 L 451.61,808.48 L 462.18,806.69 L 472.68,804.88 L 483.10,803.06 L 493.44,801.21 L 503.71,799.36 L 513.90,797.48 L 524.01,795.60 L 534.04,793.69 L 544.00,791.78 L 553.88,789.85 L 563.68,787.91 L 573.41,785.95 L 583.06,783.99 L 592.63,782.01 L 602.12,780.02 L 611.53,778.02 L 620.86,776.01 L 630.12,773.99 L 639.30,771.96 L 648.40,769.92 L 657.41,767.88 L 666.36,765.83 L 675.22,763.77 L 684.00,761.70 L 692.70,759.63 L 701.33,757.55 L 709.87,755.46 L 718.34,753.38 L 726.72,751.28 L 735.02,749.18 L 743.25,747.08 L 751.39,744.98 L 759.46,742.88 L 767.44,740.77 L 775.34,738.66 L 783.17,736.55 L 790.91,734.44 L 798.57,732.33 L 806.15,730.22 L 813.64,728.11 L 821.06,726.00 L 828.39,723.89 L 835.65,721.79 L 842.82,719.69 L 849.91,717.59 L 856.92,715.50 L 863.84,713.41 L 870.69,711.32 L 877.45,709.24 L 884.13,707.17 L 890.72,705.10 L 897.24,703.04 L 903.67,700.99 L 910.01,698.94 L 916.28,696.90 L 922.46,694.87 L 928.56,692.85 L 934.57,690.84 L 940.50,688.84 L 946.35,686.85 L 952.11,684.87 L 957.79,682.90 L 963.38,680.94 L 968.89,679.00 L 974.32,677.07 L 979.66,675.15 L 984.92,673.24 L 990.09,671.35 L 995.18,669.48 L 1000.18,667.62 L 1005.10,665.78 L 1009.93,663.95 L 1014.67,662.14 L 1019.34,660.34 L 1023.91,658.57 L 1028.40,656.81 L 1032.80,655.07 L 1037.12,653.35 L 1041.35,651.65 L 1045.50,649.97 L 1049.56,648.31 L 1053.53,646.67 L 1057.41,645.05 L 1061.21,643.45 L 1064.92,641.88 L 1068.55,640.33 L 1072.09,638.80 L 1075.54,637.29 L 1078.90,635.82 L 1082.18,634.36 L 1085.36,632.93 L 1088.46,631.53 L 1091.48,630.15 L 1094.40,628.80" fill="none" stroke="#ffffff" stroke-opacity="0.22" stroke-width="9.2" filter="url(#softGlow)" stroke-linecap="round"/></g>

  <g id="merge-glow" opacity="0.9">
    <radialGradient id="mergeRad" cx="50%" cy="50%" r="50%">
      <stop offset="0%" stop-color="#eaffff" stop-opacity="0.95"/>
      <stop offset="60%" stop-color="#bffaff" stop-opacity="0.45"/>
      <stop offset="100%" stop-color="#ffffff" stop-opacity="0"/>
    </radialGradient>
    <circle cx="1094.40" cy="604.80" r="38.40" fill="url(#mergeRad)" filter="url(#softGlow)"/>
  </g>
    

  <g id="check" filter="url(#softGlow)">
    <path d="M 1099.40,602.80 L 1274.40,784.80 L 1854.40,164.80"
          fill="none" stroke="url(#checkGrad)" stroke-width="19.20" stroke-linecap="round" stroke-linejoin="round"/>
    <!-- Tiny glints on the rising segment -->
    <circle cx="1477.40" cy="567.80" r="7.68" fill="#ffffff" opacity="0.9"/>
    <circle cx="1680.40" cy="350.80" r="5.76" fill="#ffffff" opacity="0.85"/>
  </g>
    
</svg>