<svg xmlns="http://www.w3.org/2000/svg" width="1920" height="1080" viewBox="0 0 1920 1080">
<defs>

      <linearGradient id="bgGrad" x1="0" y1="0" x2="1" y2="0">
        <stop offset="0%" stop-color="#ffa46b"/>
        <stop offset="45%" stop-color="#ff6a3d"/>
        <stop offset="55%" stop-color="#00b3aa"/>
        <stop offset="100%" stop-color="#1f4dd6"/>
      </linearGradient>
      <radialGradient id="vignette" cx="50%" cy="50%" r="70%">
        <stop offset="60%" stop-color="#000000" stop-opacity="0"/>
        <stop offset="100%" stop-color="#000000" stop-opacity="0.18"/>
      </radialGradient>
      <linearGradient id="spanGrad" x1="0" y1="0" x2="1" y2="0">
        <stop offset="0%" stop-color="#ff6a3d"/>
        <stop offset="50%" stop-color="#00b3aa"/>
        <stop offset="100%" stop-color="#1f4dd6"/>
      </linearGradient>
      <linearGradient id="traceWarm" x1="0" y1="0" x2="1" y2="0">
        <stop offset="0%" stop-color="#ffa46b"/>
        <stop offset="50%" stop-color="#ff6a3d"/>
        <stop offset="100%" stop-color="#00b3aa"/>
      </linearGradient>
      <linearGradient id="traceCool" x1="0" y1="0" x2="1" y2="0">
        <stop offset="0%" stop-color="#ff6a3d"/>
        <stop offset="50%" stop-color="#00b3aa"/>
        <stop offset="100%" stop-color="#1f4dd6"/>
      </linearGradient>
      <linearGradient id="shieldGrad" x1="0" y1="0" x2="0" y2="1">
        <stop offset="0%" stop-color="#dff3ff"/>
        <stop offset="100%" stop-color="#0e1e2e"/>
      </linearGradient>
      <linearGradient id="lockGrad" x1="0" y1="0" x2="0" y2="1">
        <stop offset="0%" stop-color="#a7d8ff"/>
        <stop offset="100%" stop-color="#224b8f"/>
      </linearGradient>
      <filter id="softGlow" x="-100%" y="-100%" width="300%" height="300%">
        <feGaussianBlur stdDeviation="12" result="b"/>
        <feMerge><feMergeNode in="b"/><feMergeNode in="SourceGraphic"/></feMerge>
      </filter>
      <filter id="traceGlow" x="-200%" y="-200%" width="500%" height="500%">
        <feGaussianBlur stdDeviation="10" />
      </filter>
      <filter id="dropShadow" x="-50%" y="-50%" width="200%" height="200%">
        <feDropShadow dx="0" dy="6" stdDeviation="10" flood-color="#000000" flood-opacity="0.35"/>
      </filter>
    
</defs>
<rect x="0" y="0" width="1920" height="1080" fill="url(#bgGrad)"/>
<rect x="0" y="0" width="1920" height="1080" fill="url(#vignette)"/>
<g opacity="0.06">
<line x1="0" y1="0" x2="0" y2="1080" stroke="#ffffff" stroke-width="1"/>
<line x1="80" y1="0" x2="80" y2="1080" stroke="#ffffff" stroke-width="1"/>
<line x1="160" y1="0" x2="160" y2="1080" stroke="#ffffff" stroke-width="1"/>
<line x1="240" y1="0" x2="240" y2="1080" stroke="#ffffff" stroke-width="1"/>
<line x1="320" y1="0" x2="320" y2="1080" stroke="#ffffff" stroke-width="1"/>
<line x1="400" y1="0" x2="400" y2="1080" stroke="#ffffff" stroke-width="1"/>
<line x1="480" y1="0" x2="480" y2="1080" stroke="#ffffff" stroke-width="1"/>
<line x1="560" y1="0" x2="560" y2="1080" stroke="#ffffff" stroke-width="1"/>
<line x1="640" y1="0" x2="640" y2="1080" stroke="#ffffff" stroke-width="1"/>
<line x1="720" y1="0" x2="720" y2="1080" stroke="#ffffff" stroke-width="1"/>
<line x1="800" y1="0" x2="800" y2="1080" stroke="#ffffff" stroke-width="1"/>
<line x1="880" y1="0" x2="880" y2="1080" stroke="#ffffff" stroke-width="1"/>
<line x1="960" y1="0" x2="960" y2="1080" stroke="#ffffff" stroke-width="1"/>
<line x1="1040" y1="0" x2="1040" y2="1080" stroke="#ffffff" stroke-width="1"/>
<line x1="1120" y1="0" x2="1120" y2="1080" stroke="#ffffff" stroke-width="1"/>
<line x1="1200" y1="0" x2="1200" y2="1080" stroke="#ffffff" stroke-width="1"/>
<line x1="1280" y1="0" x2="1280" y2="1080" stroke="#ffffff" stroke-width="1"/>
<line x1="1360" y1="0" x2="1360" y2="1080" stroke="#ffffff" stroke-width="1"/>
<line x1="1440" y1="0" x2="1440" y2="1080" stroke="#ffffff" stroke-width="1"/>
<line x1="1520" y1="0" x2="1520" y2="1080" stroke="#ffffff" stroke-width="1"/>
<line x1="1600" y1="0" x2="1600" y2="1080" stroke="#ffffff" stroke-width="1"/>
<line x1="1680" y1="0" x2="1680" y2="1080" stroke="#ffffff" stroke-width="1"/>
<line x1="1760" y1="0" x2="1760" y2="1080" stroke="#ffffff" stroke-width="1"/>
<line x1="1840" y1="0" x2="1840" y2="1080" stroke="#ffffff" stroke-width="1"/>
<line x1="1920" y1="0" x2="1920" y2="1080" stroke="#ffffff" stroke-width="1"/>
<line x1="0" y1="0" x2="1920" y2="0" stroke="#ffffff" stroke-width="1"/>
<line x1="0" y1="80" x2="1920" y2="80" stroke="#ffffff" stroke-width="1"/>
<line x1="0" y1="160" x2="1920" y2="160" stroke="#ffffff" stroke-width="1"/>
<line x1="0" y1="240" x2="1920" y2="240" stroke="#ffffff" stroke-width="1"/>
<line x1="0" y1="320" x2="1920" y2="320" stroke="#ffffff" stroke-width="1"/>
<line x1="0" y1="400" x2="1920" y2="400" stroke="#ffffff" stroke-width="1"/>
<line x1="0" y1="480" x2="1920" y2="480" stroke="#ffffff" stroke-width="1"/>
<line x1="0" y1="560" x2="1920" y2="560" stroke="#ffffff" stroke-width="1"/>
<line x1="0" y1="640" x2="1920" y2="640" stroke="#ffffff" stroke-width="1"/>
<line x1="0" y1="720" x2="1920" y2="720" stroke="#ffffff" stroke-width="1"/>
<line x1="0" y1="800" x2="1920" y2="800" stroke="#ffffff" stroke-width="1"/>
<line x1="0" y1="880" x2="1920" y2="880" stroke="#ffffff" stroke-width="1"/>
<line x1="0" y1="960" x2="1920" y2="960" stroke="#ffffff" stroke-width="1"/>
<line x1="0" y1="1040" x2="1920" y2="1040" stroke="#ffffff" stroke-width="1"/>
</g>
<path d="M 76.80 626.40 C 576.00 432.00, 1344.00 432.00, 1843.20 626.40" stroke="url(#spanGrad)" stroke-width="64.80" fill="none" stroke-linecap="round" filter="url(#traceGlow)" opacity="0.65"/>
<path d="M 76.80 626.40 C 576.00 432.00, 1344.00 432.00, 1843.20 626.40" stroke="url(#spanGrad)" stroke-width="32.40" fill="none" stroke-linecap="round" opacity="0.9"/>
<path d="M 61.44 820.80 C 322.18 684.72, 620.16 422.28, 806.40 597.24" stroke="url(#traceWarm)" stroke-width="21.60" fill="none" stroke-linecap="round" filter="url(#traceGlow)" opacity="0.55"/>
<path d="M 61.44 820.80 C 322.18 684.72, 620.16 422.28, 806.40 597.24" stroke="url(#traceWarm)" stroke-width="8.64" fill="none" stroke-linecap="round" opacity="0.9"/>
<path d="M 61.44 756.00 C 342.34 633.53, 663.36 459.22, 864.00 616.68" stroke="url(#traceWarm)" stroke-width="21.60" fill="none" stroke-linecap="round" filter="url(#traceGlow)" opacity="0.55"/>
<path d="M 61.44 756.00 C 342.34 633.53, 663.36 459.22, 864.00 616.68" stroke="url(#traceWarm)" stroke-width="8.64" fill="none" stroke-linecap="round" opacity="0.9"/>
<path d="M 61.44 691.20 C 362.50 582.34, 706.56 482.54, 921.60 622.51" stroke="url(#traceWarm)" stroke-width="21.60" fill="none" stroke-linecap="round" filter="url(#traceGlow)" opacity="0.55"/>
<path d="M 61.44 691.20 C 362.50 582.34, 706.56 482.54, 921.60 622.51" stroke="url(#traceWarm)" stroke-width="8.64" fill="none" stroke-linecap="round" opacity="0.9"/>
<path d="M 61.44 626.40 C 302.02 531.14, 576.96 465.05, 748.80 587.52" stroke="url(#traceWarm)" stroke-width="21.60" fill="none" stroke-linecap="round" filter="url(#traceGlow)" opacity="0.55"/>
<path d="M 61.44 626.40 C 302.02 531.14, 576.96 465.05, 748.80 587.52" stroke="url(#traceWarm)" stroke-width="8.64" fill="none" stroke-linecap="round" opacity="0.9"/>
<path d="M 1858.56 820.80 C 1597.82 684.72, 1299.84 422.28, 1113.60 597.24" stroke="url(#traceCool)" stroke-width="21.60" fill="none" stroke-linecap="round" filter="url(#traceGlow)" opacity="0.55"/>
<path d="M 1858.56 820.80 C 1597.82 684.72, 1299.84 422.28, 1113.60 597.24" stroke="url(#traceCool)" stroke-width="8.64" fill="none" stroke-linecap="round" opacity="0.9"/>
<path d="M 1858.56 756.00 C 1577.66 633.53, 1256.64 459.22, 1056.00 616.68" stroke="url(#traceCool)" stroke-width="21.60" fill="none" stroke-linecap="round" filter="url(#traceGlow)" opacity="0.55"/>
<path d="M 1858.56 756.00 C 1577.66 633.53, 1256.64 459.22, 1056.00 616.68" stroke="url(#traceCool)" stroke-width="8.64" fill="none" stroke-linecap="round" opacity="0.9"/>
<path d="M 1858.56 691.20 C 1557.50 582.34, 1213.44 482.54, 998.40 622.51" stroke="url(#traceCool)" stroke-width="21.60" fill="none" stroke-linecap="round" filter="url(#traceGlow)" opacity="0.55"/>
<path d="M 1858.56 691.20 C 1557.50 582.34, 1213.44 482.54, 998.40 622.51" stroke="url(#traceCool)" stroke-width="8.64" fill="none" stroke-linecap="round" opacity="0.9"/>
<path d="M 1858.56 626.40 C 1617.98 531.14, 1343.04 465.05, 1171.20 587.52" stroke="url(#traceCool)" stroke-width="21.60" fill="none" stroke-linecap="round" filter="url(#traceGlow)" opacity="0.55"/>
<path d="M 1858.56 626.40 C 1617.98 531.14, 1343.04 465.05, 1171.20 587.52" stroke="url(#traceCool)" stroke-width="8.64" fill="none" stroke-linecap="round" opacity="0.9"/>
<g>
<circle cx="404.28" cy="533.09" r="9.72" fill="#ffffff" opacity="0.9"/>
<circle cx="404.28" cy="533.09" r="19.44" fill="#6ea3ff" opacity="0.35" filter="url(#softGlow)"/>
<circle cx="676.69" cy="493.72" r="9.72" fill="#ffffff" opacity="0.9"/>
<circle cx="676.69" cy="493.72" r="19.44" fill="#6ea3ff" opacity="0.35" filter="url(#softGlow)"/>
<circle cx="960.00" cy="480.60" r="9.72" fill="#ffffff" opacity="0.9"/>
<circle cx="960.00" cy="480.60" r="19.44" fill="#6ea3ff" opacity="0.35" filter="url(#softGlow)"/>
<circle cx="1243.31" cy="493.72" r="9.72" fill="#ffffff" opacity="0.9"/>
<circle cx="1243.31" cy="493.72" r="19.44" fill="#6ea3ff" opacity="0.35" filter="url(#softGlow)"/>
<circle cx="1515.72" cy="533.09" r="9.72" fill="#ffffff" opacity="0.9"/>
<circle cx="1515.72" cy="533.09" r="19.44" fill="#6ea3ff" opacity="0.35" filter="url(#softGlow)"/>
</g>
<path d="M 960.00 422.28 C 849.41 431.35, 824.83 528.12, 824.83 528.12 C 812.54 630.94, 929.28 709.56, 960.00 709.56 C 990.72 709.56, 1107.46 630.94, 1095.17 528.12 C 1070.59 431.35, 960.00 422.28, 960.00 422.28 Z" fill="url(#shieldGrad)" stroke="#9cc7ff" stroke-width="4.32" filter="url(#dropShadow)" opacity="0.98"/>
<ellipse cx="960.00" cy="458.57" rx="107.52" ry="24.19" fill="#ffffff" opacity="0.12" />
<path d="M 926.58 555.03 A 33.42 33.42 0 0 1 993.42 555.03" fill="none" stroke="url(#lockGrad)" stroke-width="12.96" stroke-linecap="round" opacity="0.95"/>
<rect x="907.78" y="555.03" width="104.45" height="66.53" rx="8.36" fill="url(#lockGrad)" stroke="#bfe2ff" stroke-width="4.32" />
<circle cx="960.00" cy="591.62" r="6.27" fill="#0a1630" opacity="0.9" />
<rect x="957.18" y="593.62" width="5.64" height="10.03" rx="1.88" fill="#0a1630" opacity="0.9" />
<circle cx="960.00" cy="558.36" r="230.40" fill="#6ea3ff" opacity="0.25" filter="url(#softGlow)"/>
<circle cx="960.00" cy="558.36" r="138.24" fill="#7fded8" opacity="0.18" filter="url(#softGlow)"/>
<path d="M 46.08 628.99 C 576.00 456.19, 883.20 607.39, 950.00 564.19" stroke="url(#spanGrad)" stroke-width="6.480" fill="none" stroke-linecap="round" opacity="0.85"/>
<path d="M 46.08 628.99 C 576.00 456.19, 883.20 607.39, 950.00 564.19" stroke="#ffffff" stroke-width="1.620" fill="none" stroke-linecap="round" opacity="0.35"/>
<path d="M 1873.92 628.99 C 1344.00 456.19, 1036.80 607.39, 970.00 564.19" stroke="url(#spanGrad)" stroke-width="6.480" fill="none" stroke-linecap="round" opacity="0.85"/>
<path d="M 1873.92 628.99 C 1344.00 456.19, 1036.80 607.39, 970.00 564.19" stroke="#ffffff" stroke-width="1.620" fill="none" stroke-linecap="round" opacity="0.35"/>
<rect x="0" y="0" width="1920" height="1080" fill="none"/>
</svg>