<svg width="1920" height="320" viewBox="0 0 1920 320" fill="none" xmlns="http://www.w3.org/2000/svg">
  <rect width="1920" height="320" fill="url(#paint0_radial)" />
  <path d="M0 196C146 162 245 76 421 76C629 76 713 196 914 208C1119 220 1237 100 1427 108C1598 116 1718 206 1920 226V320H0V196Z" fill="url(#paint1_linear)" opacity="0.55" />
  <path d="M0 60C89 80 184 140 312 140C502 140 541 40 736 32C905 25 994 138 1147 154C1344 174 1509 48 1690 28C1766 19 1837 28 1920 48V0H0V60Z" fill="url(#paint2_linear)" opacity="0.5" />
  <g opacity="0.45">
    <path d="M262 216C262 212.686 264.686 210 268 210H276C279.314 210 282 212.686 282 216C282 219.314 279.314 222 276 222H268C264.686 222 262 219.314 262 216Z" fill="#29C3B1"/>
    <path d="M300 148C300 145.791 301.791 144 304 144H320C322.209 144 324 145.791 324 148C324 150.209 322.209 152 320 152H304C301.791 152 300 150.209 300 148Z" fill="#1FA2D6"/>
    <path d="M360 96C360 94.3431 361.343 93 363 93H392C393.657 93 395 94.3431 395 96C395 97.6569 393.657 99 392 99H363C361.343 99 360 97.6569 360 96Z" fill="#2CE0BF"/>
  </g>
  <defs>
    <radialGradient id="paint0_radial" cx="0" cy="0" r="1" gradientUnits="userSpaceOnUse" gradientTransform="translate(200 40) rotate(6.6) scale(1800 580)">
      <stop stop-color="#10262C" />
      <stop offset="1" stop-color="#050D11" />
    </radialGradient>
    <linearGradient id="paint1_linear" x1="0" y1="120" x2="1920" y2="320" gradientUnits="userSpaceOnUse">
      <stop stop-color="#1AAFB7" stop-opacity="0.45" />
      <stop offset="0.7" stop-color="#1376C3" stop-opacity="0.4" />
      <stop offset="1" stop-color="#05131A" stop-opacity="0.75" />
    </linearGradient>
    <linearGradient id="paint2_linear" x1="0" y1="0" x2="1920" y2="320" gradientUnits="userSpaceOnUse">
      <stop stop-color="#2CE0BF" stop-opacity="0.35" />
      <stop offset="0.5" stop-color="#1E9ED3" stop-opacity="0.25" />
      <stop offset="1" stop-color="#061520" stop-opacity="0.6" />
    </linearGradient>
  </defs>
</svg>
