<svg width="1536" height="1024" viewBox="0 0 1536 1024" fill="none" xmlns="http://www.w3.org/2000/svg">
  <rect width="1536" height="1024" fill="url(#paint0_linear)" />
  <g opacity="0.55" filter="url(#filter0_f)">
    <circle cx="280" cy="220" r="240" fill="#3CC9B0" />
  </g>
  <g opacity="0.45" filter="url(#filter1_f)">
    <circle cx="1320" cy="320" r="260" fill="#22A0D2" />
  </g>
  <path
    d="M197 676C435 596 523 430 736 430C947 430 1025 589 1224 628C1330 648 1426 625 1536 589V1024H0L197 676Z"
    fill="url(#paint1_linear)" opacity="0.8" />
  <path
    d="M0 0H1536V1024C1415 970 1319 908 1176 892C960 869 848 986 600 998C364 1009 240 904 0 848V0Z"
    fill="url(#paint2_radial)" opacity="0.7" />
  <defs>
    <filter id="filter0_f" x="-260" y="-320" width="1080" height="1080" filterUnits="userSpaceOnUse" color-interpolation-filters="sRGB">
      <feFlood flood-opacity="0" result="BackgroundImageFix" />
      <feBlend mode="normal" in="SourceGraphic" in2="BackgroundImageFix" result="shape" />
      <feGaussianBlur stdDeviation="150" result="effect1_foregroundBlur" />
    </filter>
    <filter id="filter1_f" x="760" y="-240" width="1120" height="1120" filterUnits="userSpaceOnUse" color-interpolation-filters="sRGB">
      <feFlood flood-opacity="0" result="BackgroundImageFix" />
      <feBlend mode="normal" in="SourceGraphic" in2="BackgroundImageFix" result="shape" />
      <feGaussianBlur stdDeviation="160" result="effect1_foregroundBlur" />
    </filter>
    <linearGradient id="paint0_linear" x1="0" y1="0" x2="1536" y2="1024" gradientUnits="userSpaceOnUse">
      <stop stop-color="#18242B" />
      <stop offset="0.45" stop-color="#10262A" />
      <stop offset="1" stop-color="#061015" />
    </linearGradient>
    <linearGradient id="paint1_linear" x1="300" y1="450" x2="1430" y2="1000" gradientUnits="userSpaceOnUse">
      <stop stop-color="#29C3B1" stop-opacity="0.55" />
      <stop offset="0.6" stop-color="#1FA2D6" stop-opacity="0.45" />
      <stop offset="1" stop-color="#0B2230" stop-opacity="0.65" />
    </linearGradient>
    <radialGradient id="paint2_radial" cx="0" cy="0" r="1" gradientUnits="userSpaceOnUse" gradientTransform="translate(780 260) rotate(96.14) scale(746 1188)">
      <stop stop-color="#12B2C9" stop-opacity="0.25" />
      <stop offset="0.54" stop-color="#0A1F29" stop-opacity="0" />
      <stop offset="1" stop-color="#041016" stop-opacity="0.9" />
    </radialGradient>
  </defs>
</svg>
