<svg width="1600" height="900" viewBox="0 0 1600 900" fill="none" xmlns="http://www.w3.org/2000/svg">
  <defs>
    <linearGradient id="gradient-teal" x1="0" y1="0" x2="1" y2="1">
      <stop offset="0%" stop-color="#0d9488" />
      <stop offset="55%" stop-color="#14b8a6" stop-opacity="0.85" />
      <stop offset="100%" stop-color="#115e59" />
    </linearGradient>
    <linearGradient id="gradient-glow" x1="0.25" y1="0" x2="0.75" y2="1">
      <stop offset="0%" stop-color="#0f172a" stop-opacity="0.2" />
      <stop offset="40%" stop-color="#0f172a" stop-opacity="0" />
      <stop offset="100%" stop-color="#0d9488" stop-opacity="0.35" />
    </linearGradient>
    <radialGradient id="radial-glow" cx="50%" cy="35%" r="60%">
      <stop offset="0%" stop-color="#14b8a6" stop-opacity="0.55" />
      <stop offset="45%" stop-color="#0d9488" stop-opacity="0.25" />
      <stop offset="100%" stop-color="#0f172a" stop-opacity="0" />
    </radialGradient>
    <pattern id="grid" width="120" height="120" patternUnits="userSpaceOnUse">
      <path d="M120 0H0V120" stroke="#0f766e" stroke-width="1" stroke-opacity="0.25" />
      <circle cx="0" cy="0" r="2" fill="#0d9488" fill-opacity="0.35" />
    </pattern>
  </defs>
  <rect width="1600" height="900" fill="#0b1120" />
  <rect width="1600" height="900" fill="url(#grid)" />
  <rect width="1600" height="900" fill="url(#gradient-glow)" />
  <ellipse cx="800" cy="300" rx="520" ry="320" fill="url(#radial-glow)" />
  <path d="M-50 640 C220 540 360 570 560 620 C780 675 1120 760 1660 630 V900 H-50 Z" fill="url(#gradient-teal)" fill-opacity="0.65" />
  <path d="M-50 670 C240 580 400 610 580 650 C780 695 1070 780 1650 640 V900 H-50 Z" fill="#14b8a6" fill-opacity="0.18" />
</svg>
